<mxfile host="app.diagrams.net" modified="2023-10-29T17:25:52.151Z" agent="Mozilla/5.0 (X11; Linux x86_64; rv:109.0) Gecko/20100101 Firefox/119.0" etag="-tihOncGVrzGuvOa_2VM" version="22.0.8" type="github">
  <diagram name="Page-1" id="BoClkutDQAhslehwrVNh">
    <mxGraphModel dx="1687" dy="932" grid="1" gridSize="10" guides="1" tooltips="1" connect="1" arrows="1" fold="1" page="1" pageScale="1" pageWidth="827" pageHeight="1169" math="0" shadow="0">
      <root>
        <mxCell id="0" />
        <mxCell id="1" parent="0" />
        <mxCell id="c_21xc94MHx_ofup2Neq-43" value="" style="shape=image;imageAspect=0;aspect=fixed;verticalLabelPosition=bottom;verticalAlign=top;image=data:image/png,iVBORw0KGgoAAAANSUhEUgAAAU8AAADKCAIAAACqpVV6AAAAKnRFWHRjb3B5bGVmdABHZW5lcmF0ZWQgYnkgaHR0cHM6Ly9wbGFudHVtbC5jb212zsofAAABKWlUWHRwbGFudHVtbAABAAAAeJyFj0FPwkAQhe/zKybx0saU0IJGGw9oBQ2hgVjgvm1H2KTdJbuzJET97y5VSTQx7G3efPvem5FlYdi1DVSNsBbvS8tGVJx10xugf5fI1O4awZQTb3UdhJ18gdaVJ+UDvh0yrSpDTJ1DfLI4zyb/sVtZE/oGfMCW2pKMBfjd8+49iv4En0cSGJGqj6fDohGKV/kM995caoVxL+kng16cBBMjcV4xJn2MB+nwNr0a4mqZ4XEfQvC0mKHVzlSEtfR5snTsDUKYir3AF6dYtpTicQqWeYjF+EfEsdpLo1VLimG6zr8gfNZc7DR38PUwepCMBRnfC9c5PNKrcA37r5WupdqkvsokuoGZUBsnNj6IFGTaB5iD3xXwCZo5mNbrFZLEAAAnkElEQVR4Xu2dCVxU5d7HNdzDMrdQyNwTWZWtWBRIRFNTU8F87WqKqJliogi5ooQR5RU3zJsCKb6CgKHiiuJyP3YVFQpS33LLLVME5nZvN2257695ptPhOWcOw8AsDP/vZz7zOfNsZ3me73OeMzPnPI3+SxBEw6ARH0AQhIVCthNEQ4FsJ4iGAtlOEA0Fsp0gGgpkO0E0FMj2PykoKIiLi3uPsCDi4+M//PBDlUrFV3aDhGzXkJ2dnZmZqSIsjlu3bq1evZqv7wYJ2a7h/fff55sJYSmgcvn6bpCQ7RrIdguGbGeQ7RrIdguGbGeQ7RrqxPbyivLMfVnTIsJfGujdx9HexsbG3tHeJ8B3duScg4cPVlZW8hkIo0C2M8h2DbW0HSZ/mr3dw9fT3dsjbOH0jzKTthxNy/5iD96xjBB3Hw/vAT778vL4nIThIdsZZLuG2th+v+z+m29PdXJzXrIxFoZreyHWxc1l3oLI8vJyvgjCkJDtDLJdg962Q/Uho4e+PGJQ+ucZUsO5F9IMGhE0LjSEhDcmZDuDbNegn+2Vqsops6dC9V1Fn0ndln0hZdCrwQuiFvBlEQaDbGeQ7Rr0s317TjoG8NtPV39WF7+Qvr97/wMHDvDF6UBeXl6jRo2uXbvGR9QHTLXxZDuDbNegh+3lFeWefl7ctXpWUe7MZW93t+9h1cSqabOmPfr2dPRw6uvmwAm/bOMK/4AAhW/pT548CTG8vLy4cD2EYVlu3rzJR9QObcVeunRp8uTJtra2TZs2bd++/ciRIwsKCliUHhtfJ5DtDLJdgx625+z/zN3Ho4rqxbn+IwLRoOG5fX+HPq72cB4fW1m34mzHy2eAT35+Pl/oH0ydOrV///5PPPHE2bNnxeF6CKNNSzEPHz7kg6pDttji4uIOHTq88sor+/fvv3jx4okTJ+bNmzd48GBxlhptfJ1AtjPIdg162D597oxpC6eLBY5MXIjW/Hyv5zcf3spCPj64pW3HdrK2z14UERMTwxeq5t69e0899dSuXbv8/f1nz54tjmLC5Obmenp6Nm/e3M7OLjExUYhds2YNTqpWVladOnWKj49ngY2qIi4nKysLfQpOwhkZGcnJyY6Ojs2aNXv66adDQkIEjSsqKmJjY7t164ZkNjY27777rkKxgYGBgtsCQlFi27WtTnYXZAN1h2xnkO0a9LDde6D3RxlJYoHd/NzRmt9LSxAHTo0ODx43VGr7XzPXDRo0iC9Uzccff4zGDc3S0tIwGC4rKxOimDDdu3ffuXPnV199tXbtWji/YcMGRJWUlDRu3Hj58uWlpaXHjx9HApZl+/btyHL+/Pmv1YjLcXJywgLSw0CsdO/evTghI6Rv376hoaEs5dy5c9u0abN161ZEoVhYqq3Y69evYwN2797NEkgR2y67OtldkA2sEWQ7g2zXoIft9o72W459KhbYrvtzaM2Z53dL3Za+kNfZ2ZkvVI2vr290dDQW4DkGxp9++qkQxYSBKkIIbOzduzcWYAKiTp8+LUQxZIfcLFCbOenp6a1ataqsrLxz5w56k40bN/Ip5Io9evQoQnDdLkpVBW0jeWF1srsgG1gjyHYG2a5BD9vtnrPjxO7c1RbtMqsoV+q29IW8Xbp04QtVqYqKijBkxXmbfYTM4iEAE0aIBRjwI+T+/fu49sawHJcAOE9iUCD8pC/VUgi8fPmyEHLo0KGBAwdiKPHkk0+2aNECsVD92LFj3OoEpMXWyHbZ1cnugmxgjSDbGWS7Bj1st3fsy53b7fs7oNUm7d4gdVv6Si1Id3Fx4QtV641CrP7gCTUY8bJYJozwUSWyXaUeC+AKfNq0aRh7Dx8+XJxF1nbhNItYa2vrCRMmHDly5MKFC5s2bWJZamS77iN5batTadkF2UDdIdsZZLsGPWz39ffjrtvDF81Eq+3t/MLf8lNZSFZx7oyls7r16Z56Ip2zfVPOJ9LrdpzHnn32WVyjfi4CV9fCd2NMmM2bNwtZhJG8GJwDkezevXtYPnDgAJZv3LghTsDZfvjwYXEnsnLlSqafwkhettiAgICgoCBxiEruWzptq/szT9VdUA6sFrKdQbZr0MP2uQve4b6T31X02UtBPmiOVk2s4Lyrd/9OXTrjY7tn228/vZOzfeHyaOl38jt27GjSpAlOkuLA2NhYjPnZj/NMmB49emRmZsKW9evXYxi8bt06ROE8nJiYWFhYiGuB8ePHd+7cmWXBmRlZYOzVq1cFvTnbMaTHOCIiIqKkpARX0ba2v1+SMP3QmzzzzDMpKSnct3SyxeJEjcG58AvcqVOnoqKipL/AaVud7C7IBrICdYRsZ5DtGvSw/Uj+EQ8fT85hXLS/vSKij6t98xbNMaxt36lDcMhQdj+c+LX7y30D/QdKf28fOnQoTo9c4BdffAEZ2AiZCYNld3d3nHXhSUJCAkt29uxZPz8/jJCbNm2KWEgilLBkyRIbGxtcETSq+guc+AszdBxIg74Dl9NQWrC9oqJi2bJl6G7gJ0xbvHixkEVaLIDkkyZNQkp0WzB/1KhRJ0+eZFHilcquTnYXZANrBNnOINs16GE7zjB+/gOU73vT9kpKWRcYGFjTcxShH2Q7g2zXoIftYP+B/a7u/Wr6P/nsM7meXp76/U+e0AOynUG2a9DPdrAgasHgkcG63wO3+4t9Y8aOWbhwIV8QYTDIdgbZrkFv28vLy8ePHz9k5FBd7m/PKdwzZtyY119/XY8fjQm9IdsZZLsGvW1XqYWPiopy83CL3fSe1HD2+qwkb13qBk8vL5zVSXUjQ7YzyHYNtbGdgevwgIAA3wG+cxfP25jzcVpBOgxPP5GxdU9qzPJ3B/oPRCxdq5sEsp1Btmuove0q9bf0+fn5MTExQUFBLi4uNjY2eMcyQhBO38CbCrKdQbZrqBPbCfOEbGeQ7RrIdguGbGeQ7RrIdguGbGeQ7RrIdguGbGeQ7RrQIFJSUvjpv4n6T2pqKtnOINs10LndgiHbGWS7BrLdgiHbGWS7BrLdgiHbGWS7BrLdgiHbGWS7BrLdgiHbGWS7hvpru/QpNOZJnWwn9+jLRYsWhYSEsGUXFxfxo7jFkO0Msl1D7W2XPoPVOOhiUU23jaW3trYWP+/x7NmzjdRUW47s6nTZzmoRl3zjxo3WrVsXFhayqG3btvXu3Vv2ZgSynUG2ayDbxbD0tra2wjMnwezZs+3s7HQpR3Z1umxntYhLXrFihaenpxD14MGDNm3ayD7fmmxnkO0aam87O+8JCOEJCQk9e/Zs2rRp586do6KiuEkdcnJyXF1dmzdv7u7uXlxcfPTo0X79+uEj3i9cuCBOqW3uN7FF2iZX02/bEOLj48NC2Kw1Cxf+PtGdUKy27LKrY2XCRgy5sYXYwXPnzrGohw8fzp8/H4WgKBTIHqErRKGXadeuXcuWLYcOHbp582ZhA1BObGyskBKMHTv2jTfeEIcwyHYG2a5BwfZdxQX9Ns5o/d5IvGOZj/4D6bxoIDo6ulevXllZWZcuXYKuXbp0iYyMZFGs9Xt4eBw5cgTt3svLC9r7+vpCePZx4MCB4pSyc78Jscx22cnVVPpuG9K3aNECfRAroWvXrvv27RNkU8guuzpWJvYrPz8fw2/sOHaWRYWFhbVv315272bMmIFehkUlJSVBe7YBd+7cady4MXaWJWOsWrUKGykOYZDtDLJdgzbboXenD0LCdkctPRKLdyxrE146fMVFL85IkFkI2bJlyzPPPMOWWXqhvbJ5EYTHXeBjkyZN2NmSpZSd+02IlY6QhcnVhDQ13TaUOXr0aOZwcHDw4sWLhXJ0yS47kkd/wT6mpqZiB3HqvnXrFk7p3N6hH8HC7du3MQoQR82ZM4eVfOrUKSwUFRUJUSp1L4MuQDxJJoNsZ5DtGrTZ7rIhfEr2/LhjceyFZYTwidRIm3hBQQFCWolgE57dvXtXSH/lyhVxdmHqFfYRJgjLsnO/CbHMdtnJ1YQ0Nd02lImBNwbYGCzAOpzDhXJ0yS5rO7e/2EE2e5zs3knnpWJRKJnNVCMMHBgYYiDw22+/FQeqyPY/INs1aLO9ddyrS47ECrZjGSF8IjXSJs7a8cGDB4uqUlFRIaQXzslcdvFHtqxt7jehnJvaJ1fTe9vw0c7ODkNuNomVUI4u2WVtl+5vtbZLd1w4twtfbTDo3K4M2a5Bm+1O68O4cztC+ERqpPOi4USHM94nn3wiSvUn2lq/9CNb1jb3m1COwuRqtdk29s0c+ylb2Crl7NLVqbTvL4br0pE82zs2khfveEREBMvFrttxMheiQHx8PF23K0C2a9Bme2bRsY4JY6bmLMB1O96xjBA+kRrZedFiYmJwNYumXFpailNfSkoKN3+jtPVLP7Jl2bnfxOVom1xNVbttw6mSneS5rVLILrs6hf2dNm1ahw4dMjIysHfYL/G3dOHh4R07dsSOo0xE4SJFyOXs7Lx06VKWjDFmzJiJEyeKQxhkO4Ns16DNdpBRdNRh3ZQn40bgHct8tAjZedGSkpIcHBxwjsLFrZub29q1a1m4QuvnPrJl2bnfuHJkJ1djyWqzbQLcRmrLrpJbncL+Pnz4MDIyUvgFTlwO+ppZs2a1bdu2ZcuWQUFB4l/gYmNjsVIhJfu9PScnRwgRINsZZLsGBdtNjjb3GjjXr1+3trY+c+YM+7ht27ZevXrRf+kUINs1kO31EVw7jBs3ji27uLikpaVVjddAtjPIdg1kuwVDtjPIdg3mbDtRS8h2BtmugWy3YMh2Btmuwci2G39wXidr5L6T1/H2cpNDtjPIdg3V2l5R/j0fVAuU3WOxFnN7uckh2xlkuwZl27+9fPTQRne88xH6ouwei7WY28tNDtnOINs1KNiuVr3f12eC8a4g/Jo1a+CnlZVVp06d4uPjVRLBxKqwZeVb1i3m9nKTQ7YzyHYN2mxnqj+4OeS//x2Ed23Cl5SUNG7cePny5aWlpcePH9+5c6dKB9uVb1m3mNvLTQ7ZziDbNcjaLladvbQJD8OhwenTp8WB1doueyuIOKNl3F5ucsh2BtmuQWp7Rfn3EPubs36C6uyFEIRzX9pBm/79+z/11FOhoaFpaWnip1Ao2C57m6c4o2XcXm5yyHYG2a5Baju4+X+5h5NfKLvlI6iOZYQgnE+qvrTOyMiYNm1amzZthg8frpLYjnGvICGLkt65zdluGbeXmxyynUG2a5C1XVVVeAXVxbBnTmGwzZQQfqNKSEjgbK/2lnWVRdxebnLIdgbZrkGb7ao/hL9S6K6gOk6DiYmJEBsn2PHjx2P4XVlZ+eDBg3bt2o0bN66kpCQ7O7tbt26c7dXesq6yiNvLTQ7ZziDbNSjYrtIIb69NdZX6ry9+fn7W1tY4T7q7u0N+Fo4Lb0gOfwYMGAAzOdt1uWVdDDdEry+3l5scsp1BtmtQtl1V1/+lswB0v73c5JDtDLJdQ7W2E1J0vL3c5JDtDLJdA9luwZDtDLJdA9luwZDtDLJdA9luwZDtDLJdQ1xcHN9GCEshISGBr+8GCdmuYefOnZmZmXwzIeo/t2/f/utf/8rXd4OEbP+TkydPrjJjoqKiIiMj+VAzYN68eQsWLOBDzQOc1VevXg3n+cpukJDt9YOtW7f26dPnn//8Jx9hBmCrsG07duzgIwgzg2w3d+7evRsaGtq1a9dJkybxcWYDts3Ozm7mzJnm2R8RDLLdrMnOznZ0dFyzZs3EiROzsrL4aLMB24YuKTo62svLq7i4mI8mzAOy3UwpLy8PCwvz9/cvKSnBCbN3797mfNoUtnD//v3onpKTk3/77Tc+EWFqyHZz5MiRI66urrGxsY8ePfqv+sxpzsN4BraQjT5u3749YsSICRMmlJWV8YkIk0K2mxc//PBDZGSkp6fnP/7xDyFQEMmcEXdJP//886pVq/r163fy5MkqiQiTQrabETAcnsN2OC8Emv8wniHdTqgO4aE95BclJEwG2W4WYMSOcTtG7xjDc1H1YhjPkI5BMJjHkB4DewzvxeGESSDbTU9JSYm/v39YWFh5eTkfJ6eQ2SLbMf3222/JycmOjo779+/noggjQ7abkl9++WXNmjUwITs7m49TIx0emzMKW1tcXOzl5RUdHf3TTz/xcYSxINtNxtWrV4cNGxYaGnr37l0+7g9kz5bmjMJIBL3AzJkzAwMDv/76az6OMApku2m4d++eg4NDSEgIH1EVBXnMk2q7p+nTp2MsQz/OmQSy3WTg3D5kyJCJEyfev3+fj1OjMDA2WxS2+fHjxzExMd7e3pcuXeLjCKNAtpuSn3/+OSEhwcXF5cCBAz/++CMXW+150jyRjkewa999993w4cMnT54s2xEQxoFsNz3nzp1zc3Pr2bPngwcPxOFSbeoFXCcF1Z2cnDB6X7du3Z+JCFNAtpueR48eBQQEjBo16sUXX4T5LFBhSGzmcFsOyV944QVPT0/6Nt7kkO2mZ9GiReHh4VjAeB6jeoztMcKvp8N4BhuVQHgM3TGAxzD+rbfeWrBgAZ+OMC5ku4k5dOgQznvCw1Xu378/ceLEIUOGjBgxoj4O4xnY8mHDhnl7e8fExDx+/Pi/6v//4+OePXv4pIQRIdtNCU56zs7OhYWFXHhqaqrZPqlGF/6pfpoN95ehL7/8ElfvN27cEAcSxoRsNxm//vrra6+9tmbNGj5Cjey/aOsR3DeOjC1btgQHB7OzPWF8yHaTsXr16rFjx8J5PsKimTJlypIlS/hQwiiQ7abh7NmzLi4uGMnzEZaOSqXy9PQ8cOAAH0EYHrLdBFRWVrq7u+fn5/MRDYMLFy44OTndvHmTjyAMDNluAt58881ly5bxoQ2JzZs3Dx06lC7gjQzZbmxSUlIGDx5MDX3y5Ml0AW9kyHaj8tVXXzk6Ol67do2PaHjgAt7LyysvL4+PIAwG2W48fvzxRz8/P20PrmiAFBcXo++7fv06H0EYBrLdeLzzzjsRERF8aMNm69atQUFB9Bd640C2Gwmc0n19ff/973/zEQ2e6dOnz58/nw8lDADZbgxwoY4ha2lpKR9BqP9Cj36w/t4UUI8g2w3O48ePBw8enJKSwkcQf3Dp0iUHB4fLly/zEUSdQrYbnCVLlkyZMoUPJaqSmZnp5+f3r3/9i48g6g6y3bAcPnzYw8OjsrKSjyAkREZGzpw5kw8l6g6y3YBou6GVkOWnn34aNGjQ1q1b+QiijiDbDcUvv/wyatSotWvX8hGEdm7cuOHk5HThwgU+gqgLyHZD8cEHH4SGhja0G1prz8GDB93d3ev77f3mCdluEP7+97+7urpqe1A8oUxcXNzrr79OHWWdQ7bXPWVlZf369Ttx4gQfQegGLoJGjx790Ucf8RFE7SDb65jffvttwoQJq1at4iOImvD9999jcHT8+HE+gqgFZHsds2HDhhEjRvz88898BFFDPv/8c2dn5zt37vARhL6Q7XXJ+fPnnZycqIHWFeg6hw0bRs8CqCvI9jqDnrhW5+CyaPLkyYsXL+YjCL0g2+uMsLAwapd1DvrQl156KTc3l48gag7ZXjekpaUFBQU9evSIjyBqTWlpqaOj45UrV/gIooaQ7XXAxYsXHRwcrl69ykcQdUR6erq/v7900muiRpDttYU9f4puzzY0c+bMmT17Nh9K1ASyvbbQ86eMA3rVgICA7du38xGEzpDttSInJ4eeP2U0cK1EjwCqDWS7/ly/fp0an5HJzc319vauv7PfmhayXU8eP34cHBxMN2Mbn+jo6GnTpvGhhA6Q7XqybNmyyZMn86GE4Xn06FFQUBD1s3pAtuvD0aNH3d3d6flTpoJdQ33xxRd8BKEI2V5j7t275+LicubMGT6CMCL79u178cUXVSoVH0Foh2yvGb/++uu4ceNWr17NRxBGZ9GiRVOnTuVDCe2Q7TUjKSnptddeo8eqmAPsQf10Aa87ZHsNKCwsdHZ2/u677/gIwkRcu3bNwcGhpKSEjyDkINt1hd3QeujQIT6CMCm7d+/29vb+4Ycf+AhCAtmuK+Hh4bhQ5EMJMyAyMvKtt97iQwkJZLtOpKenv/zyy3RDq3nyn//8x9/ff8eOHXwEURWyvXp+/PFHDw+Pb775ho8gzIavv/4adUS3xCojb3tFRcUHH3wQHx//HqEmNjaWDzIbTp48ydefISkoKIiLi+M3wgww5zoyMjD3ww8/lP4ZQd72xMTEW7duqYj6QFZWVkZGBl+FhiE7OzszM5PfAsL8gL/Sf4XI247ugc9NmDFGe3z9+++/z6+bMFdQWVz1ke2WAIZtfBUaBrK9HkG2WyZkOyGlbmwvKy/L2JsZFhH+0kDvPo72NjY29o59fQN8Z0fOOXTkUGVlJZ+BMDBmYjuqPvfAnpnvvOXt72OvaRj2WEYIwqlhGJna2l5eWZGSlebh6+nu7RG2cPpHmUlbjqZlf7EH71hGiLuPh88A37z9eXxOwpCYg+3Ze3Je9HtRa8Pw9kAs0vDZCINRK9vv3v9u0ttvOrk5L9kYi4rU9kKsi5tr5IL55eXlfBGEYTCt7ajoWe+87axDw0AapKSGYRz0tx2qB48a8vKIQemfZ0grknshTdCrg0PGh1K9GgcT2o4qHjl2lO4NAymRnhqGEdDTdgzgcVZHPe0q+kxahbIvpAweOSQqKkpcDmEgTGj77Mg5NW0YSI9cXDlEnaOn7bhWxwB+++nqO2/xC+ndPNwOHDggLqqBkJeX16hRo2vXrvERhsFUtu/Ly3N2c9GjYSAX8oqLajgYrW3oY3tZeZmnrxd3SZZVlDtz2dvd7XtYNbFq2qxpj749HT2c+ro5cPW6PHllQGAA92XspUuXJk+ebGtr27Rp0/bt248cObKgoECcwCSwOrh58yYfoR2FHanzGp00aZKHh8eTTz4pu5EmsR3V6jvQV3qtrkvbQC7klX5Lr3BITYg5t42IiIg+ffpgLW3btp0wYcKNGzeEKH1sz9ib6e7jUaU6i3P9RwRii1GX9v0d+rjao17xsZV1K67i8fId4Jufny+UVlxc3KFDh1deeWX//v0XL148ceLEvHnzBg8eLCQwHA8fPuSDRNS0RpV3pG5rFLzxxhurVq2KjY2V3UiT2I5q9fDx5Kpb97aBvOKGoarukBqU+ts2AgMDt23bVlpaeuTIEWg/aNAgIUof28MiwqctnC6up8jEhdjc53s9v/nwVhby8cEtbTu2k9YoXnOXzIuJiRFKw8ZJ6084jjjo8+fP79y5M/qqnj17rlu3TkjDjtHu3btdXFyaNWvWr1+/c+fOsaiKigpo0K1bN+SysbF59913xVmysrL69++PqIyMDAQmJCSgZHzEWqKiooSvixpVhQUqpFfeEXGNJicnOzo6YpuffvrpkJAQIc2aNWvQ91tZWXXq1Ck+Pl4hUEBbszOJ7ZEL53MNo0ZtA3lRgmgnqjmk1DZkA8Vs3769cePG9+/fZx/1sf2lgS99lJEkric3P3ds7ntpCeLAqdHhweOGcjWK14bsTUJ/c/36dWwNakUonCMsLAzDnp07d3711Vdr165t3rz5hg0bWBQ7Rl5eXjghFBYWYljr6+vLoubOndumTZutW7eiHz1+/DiOoDiLk5MTFtD54fhGR0f36tULdYyBVm5ubpcuXSIjI1liHCkkPn/+/NdqWKC29NXuiLhGP/74471792LbENi3b9/Q0FAElpSUoITly5djw7DN2GVtgdJizcT2gYH+XMOoUdtAXpQglFbtIaW2IQ3kWL9+Pa710MGxj/rY3sehz5Zjn4rrya77c9jczPO7ufqTfaUWpKPHZUUdPXoUGXF0hMLF3Lp1C90k9l8IQVXhgLJldoz27dvHPqampjZp0gT9/Z07d1DxGzduFHIJsCzCcbl3717Lli0x4BESbNmy5ZlnnhEnFoukkF55R1RVa1RMenp6q1atcL2KCkOC06dPi2NlA8VIN5JhEtsdnBy5hpFdk7aBvChBKE35kFLbkA0Ug0P0/PPP4zJeCNHHdrvn7LjK69zVFivOKsqVVqHM68IedHusKOUDwWLRcwshu3btQggbmbBjdOXKFRbFPmIPjx07xuUSYGkuX77MPhYUFOBjKxEtWrRAyN27d4XE4hpVSK+8I6qqNXro0KGBAwfivIR+l5WAVoi2iDHkU089he48LS2NDQJlA6XFmontzz33nNRq3dsG8qIEoTTlQ0ptQzZQAMcB5fj4+AjDeJV+tts72nNduH1/B2xW0u4N0iqUvv735C7h3K48yNGlRoUeUaiAamtUyMLKP3jwYFFV2MhHWqMK6ZV3RCVaNQq0traeMGECzgMXLlzYtGmTsJaysjJcLk6bNg1DzeHDh7OMsoEC0o1kmMR2R7lzu+5tA3kdRed25UNKbUNboErdEeCjq6vr7du3hUCVfrb7+Ptwl2fhi2Zis3o7v/C3/FQWklWcO2PprG59uqeeSOcqdeueVPH3hAEBAUFBQcJHBttDbKt0tNa7d2+2rK1Gqx2tCVnQ76L7/OSTT6qm0nDgwAEkFv+AoZxeYUdUolUfPnwYC7gwY+ErV67k2g1AV41ADA6rDZQ2O4ZJbA98OVB63a5720BelCDaCaVDSm1DWyD6l7Fjx9rb26OXEadR6Wf77Mg53Fevu4o+eynIB+uzamKFenX17t+pS2d8bPds++2nd3LV/+6KReLv5NGHYdwi/Dhx6tSpqKgo4QtM9FsdOnRAB4aodevWSb+JkdaoSl3xuGRKSUmR/SZGfIGELUFKNJrS0lL0xMgifEmLMwASo2VcvXpVyKKQXnlHhFVjrGhlZYWrqZKSElyY2dr+PtBlp53ExMTCwkIUO378+M6dO+OCTTaQFfh3NWvXrkV2ND4ss3CGSWzHwZkZ8zZX3bq3DeQVNwxVdYeU2oY0EKX95S9/sbGxQXtg3yACoc3oY/uhI4dkflYtyn17RUQfV/vmLZpj3NK+U4fgkKHstifxK7dkv7+/P/ezKvZ/0qRJ2NwmTZrgoIwaNerkyZMsCmOSyMhI4VcWNG4hl0KNontbtmxZly5dcOyQd/HixbJZGElJSQ4ODs2aNcO1lpubm3gVS5YswYF74oknGol+ZVFIr7Aj4lWvX78exeJUgCsrtDa22WfPnvXz88NADnvq7u6OukRK2UBGIwlClMpEtqNavf18uBrXvW0gL9cwVIqHlNqGNFAl1zCE0YE+tmv7y5Qur41pyYGBgdK/TBF1i0lsR7UGBAbGboqT1nu1L+QKoIZhYPSxHeTtz3Nxc63p36FzC/O8vLwa5v/kjYxJbFepL2jdPd1r2jCQHrmoYRgaPW0HkQvmB706WPdbnfZ8uX/suLELFy7kyiEMgalsB6ji4aNH6N4wkBLpqWEYAf1tLy8vDxkfGjxyiC63Me8597vqr7/+uvQXY8IQmNB2VDEq+tXXRqZ/niltCdwLaZCSGoZx0N92lbpeo6Ki3DzclievlFYke+WW7Me1Ogbw6LypRo2GCW1XqRsGqtvD0yPhbx9Km4TwQizSUMMwGrWynYHLrYCAAJ8BvhGL39mQsyn12PbPvszbcTIjZU/au7GL/P39EUuXZEbGtLYzWMMYMHDAgqVRm3Z/su34/8JwvGMZIQinhmFk6sB2lfrL2Pz8/JiYmKCgIBcXFxsbG7xjGSEIpy9ajY852K6ihmFm1I3thLlhJrYTZgXZbpmQ7YQUst0yIdsJKWS7ZUK2E1JqYHtKSsp7RH0gNTXVmLZTw6gXoFXUwHa+oyDMGGPazq+bMFfIdsuEbCekkO2WCdlOSCHbLROynZBCtlsmZDshxRxtl32KiEGpkzWKH5ACFi1aFBISwpZdXFw+/fTTP5MaHku1vU5qqkbUyRrNpG3UP9tZrLW1tfhBfGfPnuUeyqMN7riLA7WtUUfEJd+4caN169aFhYUsatu2bb179zbm38Ibpu3UNpSpr7bb2toKzw8Es2fPtrOzk1aVFOPU6IoVKzw9PYWoBw8etGnTRuEZw3VOQ7ad2oY2jGS7dMIq7iCKDwdbzs3NxUFp3rw5qioxMVEoisVGRUX5+PiwkLKysg4dOixc+Pt8Y0JVaZuRq1FVxGXKThumMNkYotCS2rVr17Jly6FDh27evFnYAJQTGxsrpARjx4594403xCEGpR7ZTm3DaG2jDmzfWZTvvGFa6/dGuiW/tatYZrZd2Qmrqq3R7t27K0zxdf78+RYtWhQXF6vUk3J17dp13759QgnaZuRiiVl28QxerEzZacMUJhubMWMGWhKLSkpKQtWyDbhz5w72d+/evSwZY9WqVdhIcYhBMQfb0Rj6bZyBhoF32Yahorahxmhto7a2pxXmtX9/9NScBUuPxEbsje3y0f9I61V2wqpqa7TaiQFGjx7N6ik4OHjx4sVCCQozcgnZZUdr0mnDFCYbu337Nnp6cdScOXNYyadOncJCUVGREKX6Y7ZNnGrEgYbD5LajGXT6ICRsdxQaBt6xLG0YKmobaozWNmpre881/zMle37csTj2ijmY6J48i0sjO2FVtTVa7aQ/GFxhEHXx4kUcWfTTQgkKM3JxKxJggdJpwxSmH5LOMcSiUDKbSEQ4OTBwGkHgt99+Kw40HCa33WVDuLhhYBkhfCJqG2qM1jZqa3urlcOWHIkVKnXlsVVPvzeKTyQ3YRVXoxjbCAeaRV38Y34clZYaraiowGUbhlVsnimhqhRm5BInEwoXlyn+KBQlrTahRqUbKfTfFy5cEKJURuy/GSa3vXXcq+KGgWWE8InUUNswWtuore3dVo8Xd+Fz962QntvFCBNWsd0WfodISEjganTz5s1CLtnRmkr9MGMss58rhWpQnpFLOoOXSnuNKkw2xkZr4o2MiIhgudi1GTpsIQrEx8cb59qMYXLbndaHced2hPCJqkJtw9DU1vb1p3e2WzWKXbfj8sz2w/HSyzPZCasePHjQrl27cePGlZSUZGdnd+vWjavRHj16ZGZmooNcv349akj4wlN89NEdso5cCGclKMzIJTuDl7YaVSlONhYeHt6xY0dsJMpEVPv27YVczs7OS5cuZckYY8aMmThxojjEoJjc9syiYx0TxrCGgXcsI4RPRG1DjdHaRm1tB5+c/axP0iTruFddN0yXqq7SPmEVLq5QkThGAwYMwNHnahSxSIxYW1tb9O5CadzR58JZCSrFGbmkM3gp1KjCZGNoT7NmzWrbtm3Lli2DgoLEv7LExsZipUJK9ptqTk6OEGJoTG47yCg66rBuypNxI/COZT5aDbUNY7aNOrCdkHL9+nW04DNnzrCP27Zt69Wrl3H+L8UwB9sJWUzYNsh2Q4HxIcaibNnFxQUXpVXjDQvZbs6Yqm2Q7ZYJ2U5IIdstE7KdkEK2WyaJiYl8FRoGsr0eoavtcXFxxvkigag933zzzebNm/kqNAzJycncP8MI8wT+6mr78ePHMzMz+QII8wPuRUdHP3r0iK9Cw4AVRUVFkfDmT1ZW1qlTp7jqk7cdIPUHhNmzadOmx48f85VnSLA6nOH57SDMCVyJZ2Rk8DWnYDtBEBYG2U4QDQWynSAaCmQ7QTQUyHaCaCj8P7Ww9MJtoOfBAAAAAElFTkSuQmCC;fontSize=11;fontFamily=Helvetica;" parent="1" vertex="1">
          <mxGeometry x="130" y="210" width="165.85" height="100" as="geometry" />
        </mxCell>
        <mxCell id="c_21xc94MHx_ofup2Neq-42" value="" style="shape=image;verticalLabelPosition=bottom;labelBackgroundColor=default;verticalAlign=top;aspect=fixed;imageAspect=0;image=https://upload.wikimedia.org/wikipedia/commons/thumb/9/9d/Abstract_factory_UML.svg/1200px-Abstract_factory_UML.svg.png;fontSize=11;fontFamily=Helvetica;" parent="1" vertex="1">
          <mxGeometry width="302.27" height="200" as="geometry" />
        </mxCell>
        <mxCell id="c_21xc94MHx_ofup2Neq-44" value="" style="shape=image;imageAspect=0;aspect=fixed;verticalLabelPosition=bottom;verticalAlign=top;image=data:image/png,iVBORw0KGgoAAAANSUhEUgAAAYgAAAEtCAIAAACd8GAsAAAAKnRFWHRjb3B5bGVmdABHZW5lcmF0ZWQgYnkgaHR0cHM6Ly9wbGFudHVtbC5jb212zsofAAABNmlUWHRwbGFudHVtbAABAAAAeJydUMFOwkAQvc9XzLHVlEBBo40HKIJKaCQWuC/tUDfp7pLtlEjUf3erlIMeSLxsdua9N+/NDCsWlmtVQlaKqsKx0Uxv/A6Il8f/k3vtVmTk+fAJINsSU7aCqThgw3Z8HJWFsZLVL8VpcmaJqVWN/ieLz8leZU5IascHVKQ2ZCuA4yZ4EQSn1HCKf/fh2n/incFjGJLOm8PBohSaV8kc985MGo29TtgN+51e6E2txOeMMexirx8NbqOrAa6WY2xwH7yHxRwrU1t3zFxWbOWmZjfAh5nYC3ypNUtFETaVt0x8TCdtEyd6L63RijTDbJ38kPDRcLoz/E2+HgSxZEzJuly4TuCetqIu2Ukzk0tdRC7KNLiBudBFLQpnRNqdyhnYg8NS+ALCprGd8eviyQAAONhJREFUeF7tnQtczef/wKMUjWGKaHKtddG9tIhuQja/GHLdz/3OtKILc4loZhu6CENFmZIsci2FNmZSGYbmNmFGt/Pff/a3F/v9P7+eeV7fnu85p9L3OZ1Tn/frvHp9v8/t+3TO5/v+Ps/3XB6t/yAIgqgZWmwCgiBIQ4NiQhBE7UAxIQiidqCYEARRO1BMCIKoHSgmBEHUDhQTR3JzcyMiItYijY5169Z9/vnnMpmMfckRiUAx8eLAgQOpqakypJFSUlLy5Zdfsq86IhEoJl58+umnbCwjjQt4idlXHZEIFBMvUEyNHhQTP1BMvEAxNXpQTPxAMfGiYcVUXlF+4Ej6rIA5rh79LPpYGBkZwd/+Hm7zAhccPXG0srKSrYDUHRQTP1BMvGhAMe09+HVfNxenfs4zQmZ/kbp556nEA5cPwV/YhhSn/s6uA/sdyjzEVkPqCIqJHygmXjSImErLSmd+NMva0Wb5lnCQkaIH5No42gYEBZSXl7NNILUGxcQPFBMvVC+msrKyYR+85z18UPL5FLGMmAeU8R7uM8p/NLrptUEx8QPFxAvVi2nmotlgpf2F34g1JPcBJQcN9wlaEsQ2hNQOFBM/UEy8ULGY0g6lwQwu6VzNYyXhA8rbOdkfO3aMbQ6pBSgmfqCYeKFKMVVWVr470FV8XymtMGPuygU9LXpp62i30G3Ry7J3H2drS0crYRmo5e7pXpv36a5fvz5lyhRjY+MWLVoYGBj4+fnl5uayherCkSNHtLS07t+/z2bUEanaqSsoJn6gmHihSjEdPXHUqb8za6WiDI/hXnDGgpIsHKzM7SxAT7Cr31qfKek6wDU7O5tttDpFRUWGhobDhg07evToTz/9dObMmcDAwMGDB7Pl6oJUQpGqnbqCYuIHiokXqhTTgsCFM0NmM7oJ2hACp2s3027bT+4iKduO73yrYwexmGaHzQsNC2UbrY6Xl5dYQ9QFZWVlixcv7tKlCwymevfuHR0dTcsQaxw8eNDW1lZXV9fe3j4/P59kaVWHVlm/fj00Ak1Bg8HBweT2/O3btzt16hQWFkbKnDt3Tk9PLzExUUk7vEEx8QPFxAtVisnNw+2LlM2MbhwHOMFZujZxvTBxeuisIWN8mZJQ19vbm21UwN27d5s1awZyYTNeMWPGDJjc7du379q1a1FRUaCM2NhYkkXE5OLiAoOyixcvOjs7u7m5kaykpCTIunTpUnEVJDE0NNTU1DQtLQ1mjhkZGSYmJkFB/9yeT09PB1tlZWU9fvzY3Nx84sSJStpRASgmfqCYeKFKMVn2sdyZs5vRzds9u8LpmnrpIJMufkBdaxtrtlEBp06dgqbAFGxGFSUlJeCLbdu20ZSAgACQC9kmYsrMzCS7CQkJOjo6MMKiWcIpGBinVatWoB6asnPnzvbt29PduXPnduvWDZTUo0ePR48ekURxO6oBxcQPFBMvVCmmt7u+LRZQl+7GcLqmFWaITcQ8oG7Xrl3ZRgUoFxPJhbESTdm/fz+kPHnyRPbKGrdu3SJZZBdcRreFQsnNzYUUfQEtW7aEFOogaBOU17x5czgorSVuRzWgmPiBYuKFKsVkaW0lHjFZOFjB6br5YKzYRMwD6trY2LCNClA+lauNmO7cuUOyhBIRC4U0dfz48cLqVFRUkAL5+fkwpNLW1oaRFK0lbkc1oJj4gWLihSrFNNDTXXyPadayuXC6mtm881V2AklJK8qYs2J+D/OeCWeShSU3748dNGgQ22h1PD09fXx8mETiggcPHoincmZmZmRbiZiOHTsG2/fu3aMVYWQEQ6QdO3bQFCGlpaW2trajRo2KjIxs27YtVaG4HdWAYuIHiokXqhTTkpAl4nfl9hd+4+rTH85YbR1t0JNdP4fOJl1gt0Mng6Rz+4QlA1cspu92KaKgoMDAwIB+XCAvLy84OJi+Tzdz5kxDQ8OUlBTIio6OFt/8lismMAtsb9my5fbt27QA9KR9+/aguatXr8JYKT4+funSpSQLfGdsbAx1Kysrvb293dzcyEhKbjsqAMXEDxQTL1QppuzsbBe3dxkxHaj6gOWC1YvM7Sz0WurBXMygs+EQf1/yYwPCxwD3ATV+jgkA6UyePLlLly46OjogqREjRpw9e5ZklZWVBQUF0Y8LREVF0VpKxAQsX77cyMioefPmWoK3+Tdv3mxlZaWrq6uvr+/o6Ehag4pwXPhLyhQXF0MfVq5cqaQd3qCY+IFi4oUqxQQjCHdPD/Env2vz+GzH515eXrX55DfCgGLiB4qJF6oUk6zqPou9k0Ndvyu37/u0vn374nflXg8UEz9QTLxQsZiA4ODgoX6+tf91gQNFh0aOHhkSEsI2hNQOFBM/UEy8UL2YysvLx40fN2zEe7X5PabUCwdHjv5g/Pjx+HtMrw2KiR8oJl6oXkyyKjfBCMjJ2SliW6RYRuSR/uPhTfFRMIODkmil+oBi4geKiRcNIibCsWPHPD09BwwcELg8KC79q8TTe0FGSWdSdnwTH7Iy1N3DHXLxvlL9QTHxA8XEiwYUk6zqfbrs7OywsDAfHx9bW1sjIyP4C9uQAun4HpwkoJj4gWLiRcOKCVEBKCZ+oJh4gWJq9KCY+IFi4gWKqdGDYuIHiokXKKZGD4qJHygmXkDUxsfHr0UaKQkJCSgmfqCYeIEjpkYPiokfKCZeoJgaPSgmfqCYeIFiavSgmPiBYuIFiqnRg2LiB4qJFyimRg+KiR8oJl6gmLiyefNmExMTTj9ZuWzZMn9/f7Jta2u7e/fu6vn/gGLiB4qJF5KI6fr161OmTDE2Nm7RooWBgYGfn19ubi5bqC5ItaCI3HaYX9FVhNy6dQKeFlDSxo0bb9y4IfkKl/fu3WvTps3FixfJ7p49e8zMzOR+uxDFxA8UEy/qL6aioiJDQ0P6+/9nzpwJDAwUr9NdJ+ovBYLcdlQjprKyMnhCoIVffvmFzZOC1atX9+3bl+4+ffq0Xbt2cpeuQjHxA8XEi/qLycvLS6whej7D+bl48WL6+//R0dG0DDnz4VyCaYiurq69vX1+fj7J0qoOrbJ+/XpoBJqCBoODg8nvNN2+fbtTp050AZVz587p6eklJiYqakcoJqn6QJtKS0tzcHCA3JSUFHELcXFxffr0gQO1bdsWZmH0WaqoqAgPD+/RowdUNDIyoguuKDkcdBiq0GLA6NGjP/zwQ2EKAcXEDxQTL5SIaX9Rrv2WOW3W+sFf2Gazq1C+xiQwY8YMmNzt27fv2rVrUVFR4hWTXFxcsrOzYUri7Ozs5uZGspKSkiDr0qVLxVWQxNDQUFNTUzjzYYqUkZFhYmISFBREstLT0+HUzcrKevz4sbm5+cSJE5W0IxaTJH0gTVlbW8PG1atXoX1xC9u2bTt8+DCMK6GMpaXl2LFjSd2AgAAY7+zatQuyTp8+Df5SfriHDx/C0w5NkWKEyMjI7t27C1MIKCZ+oJh4oUhMYKLOn/nPOBi8Iisc/sK2XDcpX5W7pKREvMYknGlkm5zJmZmZZDchIUFHRwdGWDRLOI0C47Rq1QrUQ1N27tzZvn17ujt37txu3bqBkmDcQZfqFrdDE4VikqQPpDwomOaKWxCSnJysr69fWVkJlgFfb9myhSmg5HB5eXnQcmFhIc2SVZkUbFVaWipMlKGYeIJi4oUiMdnGzpp2YHFETgR5wDaksIVqElNtVuW+desWySK74DK6LTylc3NzIUVfQMuWLSGFOgjaBOU1b94cDkpriduhiUIxSdIHUv7GjRu0vLiFEydOuLu7wxDyjTfeIHXBSjk5OVrVnyWCksORRX3pOI4AQyotebe0UEz8QDHxQpGY2kT8a3lWOBUTbEMKW6imqVxtxCR3jUnxKU2aOn78eGF1yCK3QH5+PowvtLW1YVhBa4nboYlCMUnSB6YpcQuw0bp16wkTJsAgqKCgYOvWrSRXkZiUHI6MmKARYXkcMakeFBMvFInJOmYGM2KCFLZQFZ6enj4+PkwiORsfPHggnsqZmZmRbSVSICOCe/fu0YowTIDxwo4dO2iKEDgbbW1tR40aFRkZ2bZtW3qSi9uR1VpM4rrK+1CjmE6ePAm7P/30E9lds2YNyVU0lVNyOHKPCYZIwsR169bhPSYVg2LihSIxpRbmdFw/anr6khVZ4fAXtiGFLVQFXLdhbkI/LgAX8+DgYPo+3cyZMw0NDVNSUiArOjpafPNbrhTALLAN5+rt27dpgbCwsPbt24Pmrl69CgOH+Ph4+u4V+M7Y2BjqVlZWent7u7m5kVGM3HZqKSa5dZX0oUYxwSwPBnSLFi26cuVKcnIydJjmQv+hWWiNufmt5HA2NjYrVqwg2wTw8qRJk4QpBBQTP1BMvFAkJiCl8JRV9LQ3IobDX9hmswXA6TR58uQuXbro6OiApEaMGHH27FmSVVZWFhQURD8uEBUVRWspkQKwfPlyIyMj5jPTmzdvtrKy0tXV1dfXd3R0JK1BRTgu/CVliouLoQ8rV65U1E4txSS3rkxBH2hdJWICYmJioEEYB7m7u4N9aC5oFDpsYmIC5oLn6pNPPqFVFB0uPDwcdmkx8jmm9PR0mkJBMfEDxcQLJWJC1Jm7d++2bt36woULZHfPnj2mpqb4yW8Vg2LiBYpJc4Fp3ZgxY8i2ra0t+UypGBQTP1BMvEAxNXpQTPxAMfECxdToQTHxA8XECxRTowfFxA8UEy/i4uKYDxAjjYnKykoUEz9QTLx4/vx5cHBwk3JTk/pn09LS8vLy2FcdkQgUE0f++usvGDd91jSYOHGiiYnJ0qVL2YzGyNq1a1NSUtjXG5EOFBMiAU+fPu1axXvvvffy5Us2G0HqCIoJkQAfHx+jKqysrLZv385mI0gdQTEh9WXXrl3ESgRTU9M7d+6whRCkLqCYkHpBJnFCMfXq1QsndEg9QTEh9YJO4oTghA6pJygm5PV58eKFiYkJqyUjIz8/P3AT5LIVEKR2oJiQerFx48a3335baCVLS8thw4bhiAmpDygmpF68fPnSzc1NKKaFCxfCiAnvMSH1AcWE1Jc7d+7QCd24ceNgEofvyiH1BMWESACZ0OEkDpEKFBMiAWRCB+AkDpEEFBMiDTB9g6kcTuIQSUAxIZIBYmKTEOS1QDEhkoFiQqQCxYRIBooJkQoUEyIZKCZEKlBMiGSgmBCpQDEhkoFiQqQCxYRIBooJkQoUEyIZKCZEKlBMiGSgmBCpQDEhkoFiQqQCxYRIBooJkQoUEyIZKCZEKlBMiGSgmBCpQDEhkoFiQqQCxYRIBooJkQoUEyIZKCZEKlBMiGSgmBCpQDEhkoFiQqQCxYRIBooJkQoUEyIZKCZEKlBMiGSgmBCpQDEhkoFiQqQCxYRIBooJkQoUEyIZKCZEKlBMiGSgmBCpQDEhkoFiQqQCxYRIBooJkQoUEyIZKCZEKlBMiGSgmBCpQDEhkoFiQqQCxYRIBooJkQoUEyIZKCZEKlBMiGSgmBCpQDEhkoFiQqQCxYRIBooJkQoUEyIZKCZEKlBMiGSgmBCpQDEhkoFiQqQCxYRIBooJkQoUEyIZKCZEKlBMiGSgmBCpQDEhkoFiQqQCxYRIBooJkQoUEyIZKCZEKlBMiGSgmBCpQDEhkoFiQqQCxYRIBooJkQoUExdyc3MjIiLWIo2adevWff755zKZjH35kXqDYpKeAwcOpKamypAmQElJyZdffslGAFJvUEzS8+mnn7LxizRe4OVmIwCpNygm6UExNSlQTDxAMUkPiqlJgWLiAYpJehpcTJWVlUePZi+YF+zWz9vS3MbIyMjC3Ka/q/ecmcEH005UlFewFZB6gGLiAYpJehpWTIcyjvRz9XB2HDhnanj0+pN7thZmfv0Q/sI2pDg7DHRxdt+XlMlWQ14XFBMPUEzS01BiKi8vD1gUbGvjvDpsD8hI0QNybaydZ01fXFpaxjaB1B0UEw9QTNLTIGICK40eNc7Hc9T++JtiGTEPKAMl3/P1LysrZxtC6giKiQcoJulpEDEFBQYP9hp1KPm+WENyH1AS3DR7xmK2IaSOoJh4gGKSHtWL6dixY/Z2fVN31TxWEj6gPMzp0lKPsM0hdQHFxAMUk/SoWEyVlZXu7l7i+0of+odoifAaOFpYBmq5unhAC2yjIq5evTpx4sTOnTtra2u3bdvW1dU1OzubZH300UdeXl7Vi9eW+tRVE1BMPEAxSY+KxQSCcH3XXTwgWhm829neGx56eq1ASWR7wYz1TDFnx4FHj/6jGEWAlQwMDEaOHJmTk3P9+nX4GxwcnJeXR3L79++/ZMmS6jX+oayshvvrSupqCigmHqCYpEfFYgoNDZs/c7VYTPTxdpdeICZxOnnMmbZ64bwQttHqLFiwwNjYuKKC/QDU06dPW7RoQYdj77zzDmgLNnbu3Onm5qanpxcbGwvFwsLCzM3NdXV127RpM2bMmEePHsmtC4lFRUUffPBB+/btW7ZsOWTIkJs3b9JjnTlzBiwG6RYWFidPntTR0Tly5L+T0C5duqxdu5YWO3fuHBz3woULNIU3KCYeoJikR8Vi8vYeFPXpCbFx6EO5mKDugP7ebKPVGTduHMjixx9/ZNJBVeALaBzGUMXFxb/88ktqairs2tvbHz58+MqVK5ACxVasWHHq1KmffvopIyMDBBcaGiq3LrRvaGgIA6iCgoJvv/12wIAB4CZyoIsXL7Zu3RqyLl++fPDgQZARVLx//z5k+fn5jRo1inZp4MCBM2fOpLsqAMXEAxST9KhYTNbWNklbi8TGoQ/lYoK6lhY2bKPVOX36NLigWbNmNjY28+bNA6HQrJSUFFAGvUu1fPnyVq1aXbt2jRZgmDZt2tixY8k2U9fLyyswMJCWzMzM1NfXJ9uenp6TJk2iWSDKrl27km0YLvXo0YNsJycnt2vX7u7du7SkCkAx8QDFJD0qFlPXriYZSb+IjUMfysUEdd9++5+TXAllZWUwdQoJCbG0tARDbdmyhaQvW7bM1dWVFhsxYgRM1uiurOr+1OTJk3v27AnzOBANTMGofYR1oRh0EqSm/wqYtb311luQBUMtyII5Gm1z1qxZw4YNI9swrYPce/fuPXnyBAwVGRlJi6kGFBMPUEzSo2IxwSimniMmK8saRkxCysvLwTIeHh5kd/jw4bNnz6a5vXr1+uKLL+guDF46duzo7+9/6NAhmI5dunQJhkiJiYkkV1j366+/fvPNNwurQ0Zee/fuBZ0J3zp0c3MDRZJt8JGuri7M78LDw01NTUtLS2kx1YBi4gGKSXpULKZBgwZt+aJe95jcB9Zwj0kIiKlbt24wmSK7MEiJiooi27/++mvz5s2zsrJo4a1bt8Kohzpl165d0JOCggKyK6yblJSkp6f3+PFjsitkz549MEaDxskuDJ3gKFCeFnBycoIxFCgP5oY0UWWgmHiAYpIeFYspLCxscUCE2Dgrg3f3dRhU48cF5kxbvWTJf+9GK2LChAkRERHffffd9evXYd4EwxyYlJ0/f57kdu7c+aOPPrpx48b9+/dBSaAMahBZlW60tbXhL8zUNm3aZGRkJLypJKx7584dyPrggw++//57mLvBtHH+/PnkfUDYhRETqAcaOXDggJmZGfw7ly9fpkeZN28emKuhPg+FYuIBikl6VCym7OzsgQM8xGKaPC5MS8Qgd3+m2Lt93elHJeWyevVqR0dHsAYoBswyduxYOuQBYmJiDA0NoeUZM2Zs3LgRJlOCqv8dXk2ePLlVq1YGBgYwa1u4cOG7775Lc4V1YffEiRMuLi4tW7aEoZOFhcWyZctoydjYWJgSQjtDhw4FS0JrNAuIi4uDvoHRhIkqA8XEAxST9KhYTDAAgcHCl58mi91U42N12B4Pd6/afPJbffD19Z0+fbowBf59orYGAcXEAxST9KhYTLKq78r1dXZJ31Pn78o52PeFumxzagaMpL7++muY0J07d27SpEkwyILZn6zqk1A///wzDOg6depEPjDVIKCYeIBikh7ViwkICQkZOWJM5tclYgHJfRxKvu87ZFRwcA2f+VYHEhISunbtCpO1du3a+fn5FRUVkfQjR440a9bMzMzs5MmT1WuoFBQTD1BM0tMgYiovLx8/fvwHI8d8k1ws1hDz2B9/8z3f0ePGjYdabENIHUEx8QDFJD0NIiZZlZtg3NS3r0vUl18f2cfKiD4+XZXs5NgXSqKVJAHFxAMUk/Q0lJgIx44d8/T0dHf3CAuOiN+anZJQBJLat7NoR0z24oA1A9w8IFf97ytpECgmHqCYpKdhxSSrep8uOzs7LCzMx8fH1tbWyMgI/sI2pEC6Zr0Hp/6gmHiAYpKeBhcTokpQTDxAMUkPiqlJgWLiAYpJelBMTQoUEw9QTNKDYmpSoJh4gGKSHojU+Pj4tUgTICEhAcXEAxST9OCIqUmBYuIBikl6UExNChQTD1BM0oNialKgmHiAYpIeFFOTAsXEAxST9KCYmhQoJh6gmKSHt5iOHDmipaV1584dNqMe8GhTBWzevNnExKR58+bQeTav3ixbtszf359s29ra7t69u3r+P6CYeIBikh6pxHT27Fk431xcXJh0HhJ5+vRpcXEx+RodaZ8sJ/ka1LJ79TwKcP36dVDSxo0bb9y4AZ1ns+vHvXv32rRpc/HiRbK7Z88eMzMzuV8zRDHxAMUkPVKJafr06Q4ODnDu/fDDD8L0Wp75taesrEy4W09l1LJ79TwK9Pno0aPQAqffrly9enXfvn3pLoi7Xbt2Bw8eFBT5BxQTD1BM0iOJmB4/fvzmm2/u37/fw8Nj4cKFwizhmQ8nzLx58zp06NCqVav3339/586d9GyHU3fx4sVdunRp0aJF7969o6OjmRbS0tJAfJCbkpIibFOrOsIq6enpdnZ2enp6Tk5ORUVFp06dsre3h134S1coEDZFtuF8hqmQrq4uFMvPzyfF5B4FWL9+PfQWegU9Dw4Opj8aJe6zuIW4uLg+ffrAgdq2bQuzMGq9ioqK8PDwHj16QEUjI6OlS5fWeDjoMFShxYDRo0d/+OGHwhQCiokHKCbpUSKm/UW59lvmtFnrB39hm80WsG3bNmNjYzijEhMTDQwMhOs4Cs/8adOmwZkG/rp27VpMTEzHjh21XolpxowZUHHfvn2QFRUVBfqIjY0VtmBtbQ0bV69ehaaEbSYlJcH2pUuXiqsQVnF2ds7KygK5wAQTDOXm5gZuIrvu7u7i7pFtyM3OzoZpEVSHKqSY3KOEhoaampqCfWCalpGRYWJiEhQUJGxW2GdxC/CkHT58mKz+ZGlpSdciDwgIgPHOrl27IOv06dPgL+WHe/jwYbNmzaApUowQGRnZvXt3YQoBxcQDFJP0KBITmKjzZ/4zDgavyAqHv7CtxE1wAsNpAxugJENDQ+GdV3rmP3jwAC71cL7RrI8//piIqaSkBLLgRKVZcHLStZVIC+Asmiu2CTPJIon0XAVdwi79wTnY1dHRIcMNcVOZmZmkWEJCAhQjM0fxUWCQCOM+4XqZMABs37492VbUZ0WTweTkZH19/crKSrAMSJmuaU5Rcri8vDxoubCwkGbJqkwKthKv9Iti4gGKSXoUick2dta0A4sjciLIA7YhhS1UBZwS2traZIFsWZVTBg0aRHPpmQ+jFdiAUQDNgqETOVdJFm2BZj158oS2QNYaIYhtIldMt27dEu7eu3dPuAs2pNvCpphawmLCo+Tm5kKKvoCWLVtCyqNHj2h5cZ+FLZw4cQIGbjBOfOONN0hdsFJOTo5W9aeCoORwIFzYYG6ow5BKS94tLRQTD1BM0qNITG0i/rU8K5yKCbYhhS1UBZgIzgHtVzSvggqIERNMQ2hFmJWQc7U2YhLenxbbRK6YaBWmjHBX3JTcWuKjkD4fP368sDpkPV5FfaYtwEbr1q0nTJgAg6CCgoKtW7eSXEViUnI4MmISruspwxGTakExSY8iMVnHzGBGTJDCFqq6ad2pU6dVq1adF2BtbU1v2dJTlMzX4uPjad3AwEByNpJZHjOVMzMzI9uKTnKSQsYLdDQkLkB36yMm8VFgqAJjlh07dtAUIYr6TPtw8uRJLcH4cc2aNSRX0VROyeHIPSYYIgkT161bh/eYVAaKSXoUiSm1MKfj+lHT05esyAqHv7ANKWwhmWzv3r06Ojp3794VJoaHh5uYmAg/Z0RO0WnTpnXu3BkGSnBCxsXFgdG0Xs2VZs6caWhomJKSAlnR0dHim9/ik5ykwOACtuFMvn37NuMUuYphdmspJrlHCQsLa9++Pfj06tWrMHgB54p1THaZ1gCY5cHoctGiRVeuXElOTjY2Nqa5IGVoFlpjbn4rOZyNjc2KFSvINmHUqFGTJk0SphBQTDxAMUmPIjEBKYWnrKKnvRExHP7CNptdha+vr6enJ5N4+fJlrar33WXVT9GnT5/OnTsXzq5WrVoNHToUznOtV/M1GHkFBQXRjwtERUXR1hSd5DRl+fLlRkZGwk9UK1EMs1tLMcnkHUVW9WFuKysrXV1dfX19R0dH2m1FfaatATExMdAgjIPc3d3BPjQXZmcrV64Es4O54An55JNPaBVFh4MrAezSYuRzTOnp6TSFgmLiAYpJepSIiTdwke/atSubitQdGLG2bt36woULZHfPnj2mpqb4yW+VgWKSHlWK6bvvvtu+fXtRURHMX+BqD5d95mOByGsD07oxY8aQbVtb28TExOr5/4Bi4gGKSXpULCZ7e3vwkY6OTs+ePcFK5D0sRGWgmHiAYpIeVYoJaXBQTDxAMUkPiqlJgWLiAYpJeuLi4iT/FQ5EPamsrEQx8QDFJD3Pnz8PDg7WFDdBP7/99ls2teG4cOGCpjx1sqqP2ufl5bERgNQbFBMX/vrrLxg3faberF27dsSIEd27d1+1ahWb13BAZ6BLw4cPX7NmDZunZsATmJKSwr72iBSgmJoiL1++3Lt3r52dXe/evcPCwtjshga6ZG5ubmVltWnTpmfPnrHZSBMAxdTkgKmHt7e3n58fbFhaWt6/f58t0dBAl6BjP/7449y5c21tbePj42EEyhZCGjUopibErVu3/v3vf7/77ruZmZmwGxMTM3/+fLaQegAdg+7BxtWrVydMmODi4pKWlgYDPbYc0khBMTUJysvLly1bBpOjrVu3ktHH//3f/8FU7vr162xR9QA6Bt2DTpLd8+fPDx8+3NPT8+TJk9ULIo0TFFMjBzQEMgIlgZhATzR99+7dMHoSFFQ7oHvQSWEKWAncBIYCTwnTkcYHiqkxA1M2mLjBGQ6TOGH6ixcvIP2HH34QJqob0D3oJHRVmAizOZjTwcwO5ncwyxNmIY0JFFPjpKioyM/Pz9vbW+6nbA4ePDhixAg2Vf2ATkJX2dSqYWB8fLytre3cuXPv3LnDZiOaD4qpsfHo0aMFCxbY2dnt3btX0d1iENapU6fYVPUDOgldZVNf8ezZs02bNsEsdcmSJb/++iubjWgyKKZGRVlZmaWl5dSpU//3f/+XzXuF8rNd3ajRoZWVlf7+/vBf//bbb2weorGgmBob586d69OnD/xlM16haH6kntQ460xKSoI5XUFBAZuBaDIopkaIEjfJvaOszii/T79hwwZXV1e8zdT4QDE1ToibcnNzmXTxe/Dqj9xPNvzP//xPYGDg0KFDnz59ymQhjQAUU6MlISHB2NhY6CbmU4uagvizoKWlpd27d3///ff/+OMPQUGk8YBiapz8/PPPNjY2MTExwjkd/Z6HxiH89gwMkWCgNH78eGtr65s3b1YviDQSUEyNkF9//dXZ2Tk1NfU/gvtN5JuxMANiS2sC0G3yfeM7d+64urpu2LABEg8cOODo6PjgwQO2NKL5oJgaGzKZzNPTMzY2lqYQN40ZMyYyMlJQUMOAzk+YMMHW1jYpKYkmfvXVV/379y8rKxMURBoDKKZGxZ9//unn57dy5UomHdwEIw6Nvk8MnYd/ISsri0lfv379kCFDfv/9dyYd0WhQTI2HFy9eTJkyZf78+X///Teb95//NILPHyoaGYWEhIwePfr58+dsBqKxoJgaD4GBgePHj2+Cv6n28uXLOXPmTJ06VYM+n4UoB8XUSIiMjBw2bFiTffscdAxSDggIkDtaRDQOFFNjYPv27QMGDBD+3FIT5NmzZ8OHDxffX0M0ERSTxoPvmlNkMpm3t/emTZvYDETTQDFpNrm5uTY2Nvg5Q8pvv/3m6uoaHx/PZiAaBYpJgykoKLCysrp48SKb0bS5f/8+DCFhIMlmIJoDiklTKS4uhrGS8t8qarKQJ+fEiRNsBqIhoJg0kocPHzo5OaWlpbEZyCsuX75sbW0t95eFEfUHxaR5lJeXDxgwYPv27WwGUp3vv/++T58++fn5bAai9qCYNIw//vjD19dXo7/1pkpycnJg3HTt2jU2A1FvUEyaxF9//TV27NigoCA2A1FMZmamnZ3d7du32QxEjUExaQwvX76cPXv2tGnT8IsXdWXfvn1OTk74US8NAsWkMYSGhuJXVV+bHTt29OvX78mTJ2wGopagmDSDDRs2DB48GH/coz5s2rTJ09OzoqKCzUDUDxSTBrBr1y642peWlrIZSB2JiIgYOnQo+l39QTGpO+np6Q4ODiUlJWwG8lrAjHjkyJF//vknm4GoEygmtYZ8Fe7GjRtsBvK6/P333wsXLmyaP1ylQaCY1Jf8/HwrKyv8fKDkvHjxYnoV+P6m2oJiUlNglARjpZycHDYDkQIYLk2YMAGGTvjDcuoJikkdKSkpcXBwSE9PZzMQ6fjzzz9HjhwZGhrKZiBqAIpJ7SgtLe3Xr9/OnTvZDERqfv/9d19f34iICDYDaWhQTOoFnCqDBw8mCzoiKqCiosLT0xN/9FLdQDGpEc+fPx89ejROLlTMkydPYIi6Y8cONgNpOFBM6sKLFy+mTZs2e/bsly9fsnkIZx48eODk5LRv3z42A2kgUEzqQlBQ0NixY/HDNQ3F7du37ezsMjMz2QykIUAxqQWRkZG+vr5NdlU4NeHatWvW1tb4EQ11AMXU8OCqcOpDfn5+nz59vv/+ezYDUS0opgYmLS3Nycnp4cOHbAbSQOTl5cG46fLly2wGokJQTA3JqVOnbGxsiouL2QykQTlx4gS+Lg0LiqnBuHjxopWVVUFBAZuBqAFkfeP79++zGYhKQDE1DDdv3oRrcm5uLpuBqA3x8fGurq6//fYbm4HwB8XUADx48ACXitUINm3a5O3tLZPJ2AyEMygmVYOrwmkWq1atGj58+LNnz9gMhCcoJpXyxx9/DBs2DFeF0yD+/vvvgIAA/GE5FYNiUh0Q2RDfgYGBbAai3rx48WLq1Klz5szBbwupDBSTioAL7/z586dMmYK/mqiJkO9Xh4SEsBkIH1BMKmLlypV+fn74G/iay++//z5kyJD169ezGQgHUEyqIDY21tPTE9/c0XTKysr69+//1VdfsRmI1KCYuJOamurs7Pzrr7+yGYgGgh/1UA0oJr6QL538/PPPbAaisZAPx+KPEHAFxcSRZ8+ewVjp0qVLbAai4eTn58Mrix9u4od8MVVUVHz22Wfr1q1bi9SP8PBwNkkTOHv2LBsT3NDQYNPQV1YNkRts8sW0YcOGkpISGdJUSUtLS0lJYcOCDxhsTRy5wSZfTKAxtjbSxFDZx9Mx2BBxsKGYEPl8/vnnbFjwAYMNEQcbigmRjzhWOIHBhoiD7XXEVFpemnI4dcaiWa7u/cz7WBgZGVn0sXTzdFsY9NGJrBOVlZVsBUQDEccKJzDYEHGw1U1M5ZUV8WmJzm59nfo5zwiZ/UXq5p2nEg9cPgR/YRtSnPo79x/oduToEbYmommIY4UTGGyIONjqIKZHT36dvGCqtaPN8i3hEB+KHpBr62gXtGRxeXk52wSiOYhjhRMYbIg42GorJgiUISOGeg8flHw+RRwfzAPK+PxrsP+4sRgumos4VjiBwYaIg61WYoJBNVy+IFD2F34jjgy5Dyg5xG9ocHCwsB1EgxDHCicw2BBxsNVKTDDVh0F10rmaL1/CB5R3dHY8duyYsClEUxDHCicw2BBxsNUsptLy0r5uLsxUP60wY+7KBT0temnraLfQbdHLsncfZ2tLRysmXFbFrfH08mTeOrl+/fqUKVOMjY1btGhhYGDg5+eXm5srLNAgHDlyREtL6/79+2yGAoqKikaMGNGhQwdtbe233nqrf//+Bw4cIFl1bYqhntVrz9mzZ+FALi4ubEYV4ljhBAZbjWh0sJFDEFq2bNmvX7+8vDymjDjYahZTyuFUp/7O1QKlKMNjuBccBqLEwsHK3M4CIgZ29VvrM7ECD7eBbtnZ2bQ1eIoNDQ2HDRt29OjRn3766cyZM4GBgYMHD6YF+FFWVsYmCajTK/Tbb7916dLFx8fn1KlTEPrffvvt+vXrd+7cSXJr05SSztSmuiRMnz7dwcGhefPmP/zwA5snL1Y4gcGmHE0PNnKICxcuFBcXnz9/ftCgQSYmJkwZcbDVLKYZi2bNDJktfPmDNoTAkbqZdtt+chdJ2XZ851sdO8iNlYDlgWFhYbQ1Ly8vcWTQ5wWewcWLF8PLANe33r17R0dH0zLk3zt48KCtra2urq69vX1+fj7JqqioCA8P79GjB9QyMjJaunSpsEpaWhqcfpCVkpICifCiQsuwC0cJDg6md0z/63MBJFFReYh+KHPlyhVaTIjcpsSdiYuL69OnD/wvbdu29ff3p0+C3OoyBT0Bnj59Om/ePLictmrV6v3334eQ1aoKNXgeLCwsaHUABkezZ88m248fP37zzTf379/v4eGxcOFCYTGCOFY4gcFGEhWV1/RgI525c+cOSU9NTYVdsK2wsDjYahaTq7vrFymbhS+/4wAnaHpt4nph4vTQWUPG+IpjJfbAVnAkaeru3bvNmjWD15s2zjBjxgwYb+/bt+/atWtRUVF6enqxsbEki/x78N/C63Tx4kVnZ2c3NzeSFRAQ0K5du127dsFV8fTp0/AaCKtYW1vDxtWrV+GpCQ0NNTU1hRcMrjwZGRlg7qCgIFI4KSkJCl+6dKm4CpKoqDy0Bv8IBKjca5HcpsSd2bZt2+HDh6HPkGJpaTl27Fgl1RX1BJg2bRqcIaAYeNJiYmI6duxIYgVKwsg/JyeHFINTC9LPnTtHduHoMMGB0ywxMRGe89LSUpJOEccKJzDYSKKi8poebEIxweXwww8/BEWSYhRxsNUsJnMr8505u4Uv/9s9u8KRUi8dFEeG+JGQmwyXHdIUjEWhIvwPtHEhJSUlYGh4BmkKBAE8QWSb/HuZmZlkNyEhQUdHB16qhw8fQkht2bKF1qKQKhB5ZBeeFNB8VlYWLQC+b9++vbCwcEyrvDxcUiD3jTfecHV1hREHxCgtJm6KJtLOMCQnJ+vr65P7I+LqSnry4MEDeNLgPKFZH3/8Ma0+ZMiQqVOnknR4MuHKT4vBmQbxBxugJJjv7N69m2YRxLHCCQw2WU3lNTrYyCH0qwDDQrDBzPpVA/8gDraaxfR217eZsOjS3RiOlFaYIY4MOY+CQ3RKqTxWSC6YmKaAmCHlyZMnslf/3q1bt0gW2YXwAkkztSikzI0bN8hubm4ufYIILVu2hJRHjx7RwsJXSHl5AMIUxqWffPIJzIbgGY+MjCTp4qZoIu0McOLECXd3d7hoQ8CRlqFBWrKWPSFPGlwJaWHypJHqe/fuhfkahBoMxeFCt3HjRlKmsLAQrm/0SYMwogMNijhWOIHBVmN5mSYHGzkENAtRB0Mz+C/Mzc1hiEobkckLtprFZNHHgrmIWThYwZE2H4xlw0Le4+uz++lFTPnoujaxQmeq9AmtMVZoFdL+8ePHC6sD0xlaWPgKKS/PsGzZMnjJFTVFE2lnILd169YTJkyAS1NBQcHWrVtpFXF1JT0Rn34wAqfV4SIPIbJ9+3a4eMJlEK54pAyYCMpov6J5FcKAk8mLFU5gsNVYnkGzgo3pDADD8zZt2gg/ECsOtprF1N+jPzPtn7VsLhzJzOadr7ITSEpaUcacFfN7mPdMOJPMxMquQwnCq7Gnp6ePjw/dJZB/jAwUmdG1mZkZ2VYUKzWOrmkVUD64f8eOHdVL/cOxY8eg8L1792iK8vIMcLmA04CEtbgpmagzJ0+e1BJcfNasWUNfYHF1JT0hU5L4+HiaEhgYKAw12B0wYMD7778/fvx4kgIB1KlTp1WrVp0XYG1tTe/jEsSxwgkMNllN5Rk0KNhkos7Iqm5s0f4TxMFWs5gWBn3EvFGyv/AbV5/+cDBtHW2IGLt+Dp1NusBuh04GSef2MbGydPUy4RslIGwYT9J3cPPy8oKDg+lbJzNnzoQpaEpKCmRFR0eL70eKY0VWFVIwB4bnS+79SOEzAj2BkhCOV69ehYsAVKFnI1wGoTDE3O3bt2kVReVhYDxq1Ch4fiERDgqjU1NTU/pfyG2K6QwMs2GosmjRoitXrsCc39j4vxMW8u/Ira6oJ7Kq+5GdO3eGaxf0BP53kI5W1byD5F6+fBlGQzo6OnRiD2ENuzCgILuE8PBwmAQJPwQkjhVOYLApL6/RwSZ71RnycQHoCWRZWVl5eXnRAjJ5wVazmE5knXDu35eJAJjzL1i9yNzOQq+lHsjPoLPhEH9f8uVv4SPjylGYEgs/WgLAvzR58uQuXbrAPwBxM2LEiLNnz5IsuJgHBQXRd3CFE1ElsQKDzJUrV8J5Bc8+1IV5uNwqhM2bN8PzoqurC5NnR0dH4SGWL18OY1F4ZrUE75vKLX/z5k14hd555x2IZuhqt27d5s2bR8eucpsSdyYmJgbKwNUJJv/wGtN/R251mYKeyKrewZ07dy5EEoyfhw4dCkGm9WpKQoCLWK9eveiur68vWeROCISUVtUb5DRFHCucwGBTXl6jg032qjMEePk6duwIrwgzxBMHW81igquom7ub8i95K3psSYwDNeKP5qiSFStWdO3aVZgCF1gYEAlTaoM4VjiBwaa58Au2msUEHDl6xNbRrq5fX8q4eMTFxQW/vsSb7777bvv27UVFRTBQhysbXOJoZMD4/IsvvoCLG32DqfaIY4UTGGwahMqCrVZiAoKWLPb51+Daf+H70I9HR48ZHRISwrSDSA7Eir29PYQIzFZ69uwJgULfyoHBc4cOHeh9kDohjhVOYLBpECoLttqKqby83H/c2CF+Q2vzEzmH8v8bKOPHj8efyNFcxLHCCQw2RBxstRWTrCpcgoODHZ0dV8WtEccHeWRcOQpTfRhUw+ULA0WjEccKJzDYEHGw1UFMBJjGe3p69h/otuiTj2PTtybkJH3z45G9Z1PiDyUuDV/m4eEBuTjVbwSIY4UTGGyIONjqLCZZ1Vsn2dnZYWFhPj4+tra2RkZG8Be2IQXS8W2RxoE4VjiBwYaIg+11xIQ0BcSxwgkMNkQcbCgmRD7iWOEEBhsiDjYUEyIfcaxwAoMNEQcbigmRjzhWOIHBhoiDTaGY4uPj1yJNlYSEBHGscGItBlvTRm6wKRQT6zSkiSGOFU5gsCHiYEMxIfIRxwonMNgQcbChmBD5iGOFExhsiDjYUEyIfMSxwgkMNkQcbCgmRD7iWOEEBhsiDrYGEJP45/XqD482VcDmzZtNTEyYHw+UimXLlvn7+5NtW1tb8QJNyhHHCicw2FSDZgUbRzGdPXtWq2rVQCadx+v69OnT4uJiRUtl1Yladq+eRwGuX78OUbJx48YbN27QtQal4t69e23atLl48SLZ3bNnj5mZWZ2+WSaOFU5gsNXYvXoeRaaBwcZRTNOnT3dwcICn44cffhCm1/LFqD3MCqX1fBVr2b16HgX6fPToUWjhl19+YfOkYPXq1X379qW7cC61a9dO0VpGchHHCicw2GrsXj2PoonBxktMjx8/fvPNN/fv3+/h4bFw4UJhlvDFULQUuqwWS8sLl2YXtqlVHWGV9PR0Ozs7PT09JyenoqKiU6dO2dvbwy78LSgoEJYkTZFtuWvYyz2KTPGi7+I+i1tQtMB8RUVFeHh4jx49oKKRkZFwnSVFh4MOMz+9PHr06A8//FCYohxxrHACgw2DTRxsdRbTvsJsm9iZbdb6OcbN21+Uy2a/Ytu2bcbGxvBPJiYmGhgYlJaW0izhi6FoKXRZLZaWFy7NLmxT7nLspICzs3NWVha83jDmh6Bxc3ODcCG77u7u4u6Rbblr2Ms9ipJF38V9FregaIH5gIAAuATt2rWLWTJI0eEePnzYrFkzaIoUI0RGRnbv3l2YohxxrHACgw2DTRxsdRNT4sUjBp+OnJ6+ZEVW+KLD4SZfTFQULvCcwn8CGxAlhoaGwpth9MVQshR6bZaWFy7NLn6BmXEvSaRPH0Qw7NLfGINdHR0dcgUQNyVew55mCY+iZNF3meI+Kxqf0wXmFS2yqORweXl50HJhYSHNkr1aZVB40ipHHCucwGDDYBMHW93E1HvTxGkHFkfkRJBH2PENTnHz2UIyGfRSW1ubrqQML7NwfVT6YihZCr02KzgLl2YXv8ByY4VZjZ4ubkV2ybp94qbEa9jTbeFRlCz6TsuL+yxsQe4C84qWpVZyOLK8Kr20EuAqp1WXuwziWOEEBhsGmzjY6iYm/TXvLc8Kp7GyJiey7doRbKGq4IBuab+ieRU0JphYkbsUem1ihbycBPELLDdWaBWmjHBX3JTcWuKjKFn0XdyUuIX7ChaYVxQrSg5HLmL0Rgah/hcxTmCwYbCJg61uYurx5TjhRSwgc7X4IgaDz06dOq1ateq8AJju0rto9FlTshR6nZaWZ1LEy7EzBehufWJFfBQli77LRE3RFNoHRQvMKxpdKzkcmfbDVUuYuG7dunpO+zmBwYbBJg62uokp5ty+DpEjyLR/xsFg48/Hiaf9e/fuhbnx3bt3hYnh4eEmJibCj36QZ03JUui1X1qeSZG7HLuSV53ZrWWsyD2KkkXfFfWZ9kHJAvNwnkCz0BpzP1LJ4WxsbFasWEG2CaNGjZo0aZIwRTniWOEEBhsGmzjY6iYmYMcP35hvntw64l92sbPFgQL4+vp6enoyiZcvX9aqeitUVv1ZU7IUeu2XlheniJdjV/KqM7u1jBWZvKPIFC/6rqjPtDWZ4gXmYcC8cuVKONkgmOAJ+eSTT2gVRYeDkxN2aTHy0ZL09HSaUiPiWOEEBhsGmzjY6iwmroiXQkdeDxhEtG7d+sKFC2R3z549pqam9fwwLicw2DQdHsHWwGJSshQ6Uk9gpD1mzBiybWtrm5iYWD2/BsSxwgkMtkaA5MHW8GJStBQ60rCIY4UTGGyIONgaWEyI2iKOFU5gsCHiYEMxIfLZsGEDGxZ8wGBDxMEmX0wRERF1uneFNDJ+/vnn7du3s2HBBwy2Jo7cYJMvptOnT6emprINIE2D4uLi0NDQ58+fs2HBBwy2poyiYJMvJiAtLe0zpEmydevWv/76iw0InmCwNVkUBZtCMSEIgjQUKCYEQdQOFBOCIGoHiglBELUDxYQgiNrx/46RS8mMeu38AAAAAElFTkSuQmCC;fontSize=11;fontFamily=Helvetica;" parent="1" vertex="1">
          <mxGeometry x="-0.23" y="450" width="130.23" height="100" as="geometry" />
        </mxCell>
        <mxCell id="c_21xc94MHx_ofup2Neq-47" value="" style="shape=image;imageAspect=0;aspect=fixed;verticalLabelPosition=bottom;verticalAlign=top;image=data:image/png,iVBORw0KGgoAAAANSUhEUgAAAWUAAADKCAIAAADy2sZjAAAAKnRFWHRjb3B5bGVmdABHZW5lcmF0ZWQgYnkgaHR0cHM6Ly9wbGFudHVtbC5jb212zsofAAABNmlUWHRwbGFudHVtbAABAAAAeJyFUE1rwkAQve+vmGNCiWi0pQ0epFZbxKA06n1NRl1IdmUyK0jb/95J1UL10LnN+5g3M4OaNbGvSpWXuq5hSKjZEXwokLqDjc6lPabIO1cE4RnVdrZH0mycFexLXczO5oSM/w0Rg7GMJDjCnFzhc76e8QvvTIGA1Z6PUGG1RqqVOpPQ/4yiG8cl/Q95BtWVGPqtG8kAbdE8RM1LbXmZTuEgoXIqdFpxO+62OnEwJgMzscdt6HST3lNy34PlYggNH6rgdT6F2nmS8wpTM5m1b34Vqok+aHj3lk2FCTRdsEhDyEYXEEb2YMjZCi2rySo9ieDNcbZ3/CN+6EXPhiFDkr1glaoX3GhfslhzVxi7TWSVcfSoptpuvd5KEFo5XALoKFymvgGORaRYEDyKDAAAKLpJREFUeF7tnXlUFUf691FwI7giRhEx0UiCoqiIjoJs0RhNjCZR3JKfOnFJxgUVBXEd3AiuwQ114hZFBREkKEZFUJxjTjQKievrxGhcMk6iQs8fc8b8MfN+pcZKU327b/f1XrnL8zl97ulb9VR19b1V336ql6fd/ksQBKEPNzGBIAhCBdILgiD0QnpBEIReSC8IgtAL6QVBEHohvSAIQi+kF4RtKS8vX758+bJly5YS9k1JSYn45ykgvSBsy4oVK+7cuSMRdk92dnZmZqb4/1WF9IKwLThwiR2TsFdSUlLE/68qpBeEbSG9cCBWrlwp/n9VIb0gbAvphQNBekFUM89NLx6VP8o+dGDCtIk9o3oFBgU2b94cn2FR4ZNmTD5y7EhFRYVYgFBAekFUM89HL3bn7Oke3qNbr9BxiRNXZaVtPbHzwHdf4hPrSOkWFtorolf+4XyxGFEV0guimrG1Xjx4+OCjqeM7hnSavzEZGqG2IDc4JHj6zOmPHj0SqyCeQnpBVDM21QuIRf/33np9YJ+MrzOVGiEssHl9YN8hsUNIMtQgvSCqGZvqxfipEyAW+0sPKtXB5ALLPu+8MTNhplgRUQnpBVHN2E4vMg9mYRqy+4x5z0K+wL5Lty5HjhwRqyNIL4hqx0Z6UVFR0aP3H4RzFtmleZ8snNwmsK27h3ut2rXatn8lKLRj+5AOgmSgVFR0lNkrJlevXh0zZkzLli1r1arVtGnTQYMGFRcXi0bPwOHDh93c3G7fvi1mVB+kF0Q1YyO9yP8qv1tYaBWxKMuLGhiDEQilCOza4bXOgVANfPX08hT0AkvP3r0KCwvFSmWUlZX5+PgMGDCgoKDgypUrp06dmjFjxhtvvCHaVfLw4UMxSQfPqBeWbVQb0guimrGRXvxpxqTxiRPlEhC/IhHDr3W71luObWMpm7/a2qSZt0m9+CRpUlJSklipjJiYGKU68LHNhnp2dnbXrl3hfWRmZiIxNTX1lVdewVdfX9+EhAR+VjU9PT0oKKh27doNGzaMjY3llbhVhSVCBWbOnIkaUA9qW7duHUuXVDZqXUgviGrGRnoRFhW+KjNNLgEhvbthOC3dmSpP/Gj2hH5D+yv1AmX79OkjVvqUmzdv1qhRIzc3V8x4Chu6HTt2xMqlS5d+/PHH2bNnt2vXDoMZs5i8vDx/f//4+HhmvHnz5vz8fDgpMG7fvv2wYcNY+u7du1HJ+fPnr1fCEseNG4e5z759+y5fvrx27do6deps2LBBbaMs3YqQXhDVjI30IjCo/daiL+QS4NemFYZT1vlcpTooF5Tt1KmTWOlTTpw4gaow8sWMp7Chi1HNvt6/f79evXrHjx/nBlu3bm3cuDH/ysnIyPD09GSnTpTzkTt37sBxgL7wlGnTpkGG2LqwUVtAekFUMzbSC79WfoI0+L7U8om7XpqnVAflgrKtWrUSK32KTr24du0a+1pcXIyvnjLq1q2LlJ9//hm5R48ejYyMhNfwwgsvsPR79+7xSuR6wbYLz4Kn7N+/Hym//PILt+cbtQWkF0Q1YyO9aK/wLwK7dsBwSsvdoFQH5aLtX+icj/AZARvnX331VWlVysvLIQdeXl4jR46E93HhwoVNmzZxjbBML2wxDeGQXhDVjI30ond0hHD+YsLcTzCcAjq9+pfCHSwluyzv4wWTXn6tzY5TGYJerNu/UeP8BYiOju7bt6+QKJzv5EMXfgQch88///x306ccO3YMlleuXGFfFy9ezDXiyJEjWL916xY3vnv3rnI+EhAQwNZJLwjnx0Z6EZ8QL1wf2V96sGffMIwodw93qEbnXl1b+Pviq/eLTXef2SfoxcwFs7Svj8AXwAyCX089ffp0QkICv2KiHLqorXHjxhjqly5dgmexffv2OXPmIB3TB3d397i4uIsXL2ZkZLRs+WTSxPQCfgTWN27ceOPGDV7V+PHjfXx8MjMzsdF169Ypz3e6tF48fvwYv9enrkdqamp2drb4czgjNtKLwsLC7uE9BBXILs2bvCjutc6BderWwYSiaQuffrH92bOqwhIRGaF9/wXAiB09erSvr6+Hhwe0Y/DgwSUlJSzL5NBNS0vr0KFD7dq1PT09Q0JC1q5dy9LXr1/fvHlzOCCRkZHp6elcL8D8+fORVbNmTTfZ9dT4+Hh+PZVXIqls1LrYtV78+9//njVrFr+S5GpgaqonwqqjYyO9qKioiIyK1H4mVW1ZuXV1TEyM2fs7XRC71gtorcuKhVTZ482GS3QCbKQXUuX8v0u3rkafH8n8Jqd7j+70/IhJ7Fov4JaL7XUx8AuIP4rTYTu9AAkJCf0Gvan/+dSc7/LfHfJeYmKiWBFRCemFXUN68Yw8evRo+Ijh/QcP0BP/IvvswfeGvDdixAiKf6GGA+sF3PXCwsLExKTo6D4dg4KbN2+OT6wjBenOMfkkvXh2MPjhL4SEdlu8eZlSI9iS+/2hz7avxTQEliQWGjiqXmB6GRER/YfukZ/8MXld6rFdm0oP7b2HT6wjBenIdYIpKOmFtUBniI6ODo/oPX1+fHrOlp3Fe6ARu09lfp63ffafkyKjIpHrBB3G1jieXkD+Z81K6NK5+6KkXdAItQW5sIGlQx8uSC+sCHNIk5KS+vbtGxz8xCHFJ9aR4jQOqa1xML3A4I+NHd6vz/v7t/8/pUYIC2xgCXvHlQzSC8KucDC9gL8ACfgy47ZSHUwusIQ9Sgn1OAqkF4Rd4Uh68eRyeufuWdvMexbyBfYo9dympmvWrGnTpo2YaimkF4Rd4TB68eR2vcgY7XMWagtKoaxyghoREeFWSY0aNXx9fVNSUgQDCxg7duygQYPEVN1MnTo1JiaGfyW9IOwKh9GLwsLCP/SIVGrBh7FPgqwJxEQMEcxQVvk4QMOGDZOSkq5fv/7999+PHz8eBZU2RoMgduvWbcGCBWKqbsLCwmbNmsW/uohebN++fSlh9+zYscNh9CIxMemTjxYp9WJhwhehXV7HUqdOPQx4tj55XKpghrKogdcmVcZrhX1eXh77euPGDXxNS0u7evUqVrZu3RoeHs4f/jt79mz//v3r16/v5eX14Ycf3r9/n9fz17/+FZZ169Zt3759UVFRvXr19u/fj3TUXKtWrV9//ZWZsWrPnTvHv44aNapZs2YeHh4BAQE5OTmwhD2XvFdffVVyGb14+lsS9o7D6EVU1OtrPz2q1Au++Pm2xTBTprMFZVGDbMcliCXsIRPs69dff42vmZmZWVlZWOnSpUt+fv7Fixd/+umnM2fONGjQIC4u7sKFC8XFxf7+/hMmTGClkAIRmT59emlpaW7uk4hMbk8DHC1atCgoKIhvbt++fZCS8vJyqVIsMP0ZMmRISUnJpUuXoE0nTpxA1qlTp1AcogOXB9uVSC8IO8Nh9CIoqNPuTWVKIeCLtl6gLGqQ7fiTQCMtWrRg6xjAERERL7/88j/+8Y/58+djYMtDGIWEhIwdO5Z/TU5O5pHaYmJi4CbwrNGjR/v4+LD1oUOHjhw5kmfNmTMH9bD1NypRnk+BWsF/kaeTXhB2hcPoBYZo3u6flELAF229QFkhHGNUVFTNmjU9PT2hDpgUvPnmmzjUI33w4MEY6tzs22+/RbX45CmfffYZq+rKlSvIwnyEZ02ePJmfrcSEYtmyZTxr4MCBY8aMwQq2glInT57kWZy5c+f27NlTnkJ6QdgVDqMXVvcvGjduPHXqVMwjMOmQn49o27btqlWr+Nddu3bVqlWLf5UqAxxBXLCyd+9eCI3cHejVqxfcFqkyHrS7u/uhQ4d4lp+fH6t2z549QikONGXixInyFNILwq5wGL2w7vmL77//HsY5OTk8hfH3v/8dToc87jtEASMf8xT29caNG40aNdq2bRvWv/jiC7enoZxBUVFRjRo1WNaZM2fcZPGjCwsL8fXYsWNS5UslsAlsiGXJwYRIHi5JIr3QR1pamr+/vzwIlRNjlSBaQiRhOLaxsbFsPTg4GB37d9OqOIxeqF0f4Yu2XgjXR9hQv3nzJk9hQCmEwfzTTz95eXlNmTIF84iCgoJOnTq99dZbzDu4fPkypGTcuHHwULKysjABcXt6BYRNVTIyMqRK7UAWpIQFj//hhx8wAxo1atT58+fh3WzcuBEGbFstWrSAy3Pt2jX+R5JemAWijL9szZo1+N0si66kDMNtLVjN6D9yB/bs2bNulZjdosmGWV0vbt26Vb9+fX7lDg51QECASf9XciC9ULv/YmHCF9279jF7PVW4/2L69OmtW7fmXznodvztLxxMKzp06IBZCQ5iSUlJ/BIpgDvg4+OD8T9gwAD8lPwKCJg9ezY6CooMHTo0MTFRftNnfn5+586dUeELL7wQHh7Oe/n69etRG/YCGsRSSC/MAhHHL8YuJ1mGyWGpH407dFjNLVu2TE9P54k49mByqmeLJhtmdb1YtGhR9+7deRa6NzxotVclOIxeqN3fOXp4ElNrOX0iY+U2avd32j+kF2YR/npJ/XWkkPLk5GRM+qDUzZs3Z+G5TdYgGXlNKY4HgYGBPBf06NGDnYdilgkJCWFhYSzrwYMHOCTg+OEmEwK196qabBirE+MZEwfsY5cuXfjJeI02Iws65e3tjUNa//79t2zZwhuAevCzcEswZMiQDz/8UJ7CcRi9kBzk+RHr4uJ6sa+0sNOG8fWXDgpJ/9P+smIxuxLlS0bVXkc6bdo0du4JWSdPnuTHfGUNkpHXlGI6iWlpUVERy2UX1Ngck1mi5rp165aVlbFtvfTSS/BY+XDVeK+qyYaxOiFJ8JcxiQgNDYWLyrI02vzxxx9Dp1hWWloahIM14N69e5gp4+diZoyUlBQ0Up7CcSS9kOj5VGdETS92njvc9NN3P8qZteB4clx+sv+qUSYlw6TTzuGvI8XAwPjZuHGjaGGqBqOvKe3Xrx+/QweWOObLLTF3ePfdd5kKwHLevHl8i9rvVVU2jCfyS287duzw8PCA+6DR5rt378ITkWdNnTqV1Xz69GmslJaW8iypUqcgInCF5IkMB9MLin/hfKjpxSufjfrjgZlLipawJemrFd3SJ4lGpgaVydeR4vjvVvVNghxlDXpeOyh/TemePXsaNGiAwY+ehpnOmjVrWDrXC0wfME2AX4NxCz+Cb1H7varKhvHEH374Qf4VYqHRZuW+syzUzF6hJpwnhpvjpnJKyMH0QqL4Wk6Hml54Ln5r/vFkrheLi1IaLh0sGikG1W2V15EqxwxHOSw1xh63l59xxOEdMrFlyxZ21z+O5yydW5aXl/v5+WHiwN6xyLeo8V5VuRnfkLxO+Vdelck2s33nr1zkWdy/wA/FsyRn8i84FL/TaVDTi5dXD5f7F9MOLdLjX6i9jlRjPmKV15TOmDGjd+/eb7/99ogRI3ii3JKd42S3NvA2a7xXVTLVMEmxdV6VRpvZfARyxrPi4uL4zwJp4E9dMpYtW+Yk5y/kUHxw50BNL9af2eedMpidvxiXm9By5XA95y80XkeK8dO4cePt27cL5zut8prS7777rmbNmh4eHgUFBTxRbonDNXM0eDprldp7VSWVhqnphaTZ5gkTJjRr1iwrKwt1IguTNV6qU6dOQgSG999//4MPPpCncBxYL1wBV9YL8PnZg6+ljfZa8k7nDRNNioWk0AtJ/XWkGKsLFy709/eHoPj6+s6bN48XscprSuFftG3bVp6iZim0We29qpKphmnohUaboVaTJk1q0qQJpkt9+/aVX09NTk7mT0JKT++/UN76zCC9sGtcXC8ci3bt2gk3MjgEN2/e9PLy+uabb9jXXbt2YUfU3HO71oslS5aI7XUxUlNTxR/F6XACvcB8YdWqVTh088sWjgVmQPyZ7ODg4J07d1bN/x271ot9+/axWFXVhdqJqOfDvXv31qxZI/4oTocT6AV8e29vb/lN386KXesFKCkpSUlJ+bQ6WLRoUevWrfEpZjwXli9fvnr1avxD4i/idDiBXrgO9q4X1Uh2dnbz5s3xKWYQVoX0woEgvVBl9OjRI0aMwKeYQVgV0guO2vUUQ+gPZmEBpBem+ec//xkQEPDzzz/jE+tiNmE9qkUvLl26NHLkyBdffLFWrVqYdcbFxfGbMp8PysvAUuW1zOvXr6tdm9CDoWAWFkB6YRpMQ5hngU+aktiU568XFy5c8Pb2HjBgwPHjxy9fvpyTk9O5c+egoCCTQc+eBbOhMQS9eHYMBbOwANIL03CZ4MJB2Ihn1Au1aBdsQJqMExETExMVFSU/6sKR9Pf3nz59urxsXl4exl6dOnX8/PxWrFjBjSX1iBWsIA+NkZmZqdY8t6rIi7P5iEYwC41dMxTMwgJIL0zAJiNsGiJfJ2yBhl7sLyvulj6pwdLB+FS7v1Mt2gUbVMo4ETdv3qxRowaGdJVaqr4mgpVt06aNyVgSGhErWEEeGgMjX615GrEtmF5oBLNQ2zWjwSwsgPTCBIJPQVMSm6KmF/tKC5svHzrxYNKSopTFJza0XvWBmmRweLQL6emgUsaJYM9x8lDMHPzFSGfBFllZk89u6YlYIQ+NIUfZPGE+wvVCI5gFN1PumtFgFhZAemECQSBoSmJT1PTi1bT/kz+fuvREusnnU01Gu5CeDiq1OBF69MLks+F6IlbIQ2NoN09NLzQeTudmyl0zGszCAkgvRJQTEGUKYUXU9EKIf5FycoUy/sVtlWgXUlXfnn9FFpuPKO8bVs5HlAEjMFz1RKzgGzXbvGfRC+WuGQ1mYQGkFyImvQmaktgONb14afUwuX8xKW++0r9Qi3YhqQ8qqfLVdnrOd8oDRvD5iHbECmGjGs3Tjm2hEcxCbib/ett4MAsLIL0QMSkNJkWEsApqerG0aDOPf4HPFstjlecvNKJdqA0qqTIkb5MmTd566y0c9jGYDx482KVLF/n1VGbctm3brKwsGKxfvx4awa9QaESsEDaq0TyzsS00gllo7JqhYBYWQHpRBbWph1o68eyo6UV5Rfmy4i0vrx7uufjtwLVjskqLRItK1KJdaAwqqfIFd8OHD8eAxGEc05CpU6fK79dixrm5ud26dcNAxThPTU3luZJ6xApho5J68yRzsS00gllo7JqhYBYWQHpRBQ0/wqTfQTw7anpRjSiHvaNgKJiFBZBeVEFDFDSkhHgWSC+si/5gFhZAevE72pMO7VzCYkgvHAjSi98x60FoeB+ExdihXhBqkF78jlk5MCsohAWQXjgQpBf/AxON1q1bNzcHbGhKYl1ILxwF9HzSCy0gEGISYW3QBe/cuSP2TcL+yMnJyc3NFf+/qpBeELZFqvRyU1NTU5yIDz74QExyZFhM2dOnT4t/ngLSC4IwhitfSiO9IAhjZLtwpGjSC4IwxmgXjhRNekEQBmCTEZeNFE16QRAG4DfpmL2dxykhvSAIA3CZcM27+0gvCEIv8isjrnmVhPSCIPQi+BQuOCUhvSAIvQgC4YJTEtILgtCFcgKiTHF6SC8IQhcmvQlXm5KQXhCELkxKg0kRcWJILwjCPGpTD7V0Z4X0giDMo+FHmPQ7nBXSC4Iwj4YoaEiJ80F6QRBm0J50aOc6GaQXBGEGsx6EhvfhZJBeEIQZzMqBWUFxGkgvCEKLf1KkaBmkFwRhGJftOaQXBGEYl+05pBcEYRiX7TmkFwRhGJftOaQXBGEYl+05pBcEYRiX7TmkFwRhGJftOaQXBGEYl+05pBcEYRiX7TmkFwRhGJftOaQXBGEYl+05pBcEYRiX7TmkFwRhGJftOaQXBGEYl+05pBcEYRiX7TmkFwRhGJftOaQXBGEYl+05pBcEYRiX7TmkFwRhGJftOaQXBGEYl+05pBcEYRiX7TmkFwRhGJftOaQXBGEYl+05pBcEYRiX7TmkFwRhGJftOaQXBGEYl+05pBcEYRiX7TmkFwRhGJftOaQXBGEYl+05pBcEYRiX7TmkFwRhGJftOaQXBGEYl+05pBcEYRiX7TmkFwRhGJftOaQXBGEYl+05pBcEYRiX7TmkFwRhGJftOaQXBGEYl+05pBcEYRiX7TmkFwRhGJftOaQXBGEYl+05pBeElSkuLl6yZMlSwpFZtmzZypUrJUkS/lzSC8KaHDhwICsrSyIcnzt37qxevVr4f0kvCGvy6aefiv2OcFjwbwr/L+kFYU1IL5wJ0osqkF5YHdILZ4L0ogqkF1ZHWy8qKiryjnz5yfQ/9YoKCwwKxO+PT6wjBenIFQsQ1QrpRRVIL6yOhl4c+DLnD73/0K1X6LjEiauy0rae2Hnguy/xiXWkIB25sBGLEdUH6UUVSC+sjkm9ePTo0aTpkzuFdJq/MRkaobYgFzawhL1YBVEdkF5UgfTC6ij1AoN/0JDBrw/sk/F1plIjhAU2sIQ9SYY9QHpRBdILq6PUiynxUyEB+0sPKtXB5AJL2KOUUA/x/CG9qALphdUR9OLQ4cOdQoJ3nzHvWcgX2KMUysqrIp4/pBdVIL2wOnK9qKioCI8MV56zyC7N+2Th5DaBbd093GvVrtW2/StBoR3bh3SQ26AUyiqvmFy9enXMmDEtW7asVatW06ZNBw0aVFxcLNg8fw4fPuzm5nb79m0xQx1b74gFTVKiVy/Ky8uXL1++bNky8bZywgEpKSkR/2CbIdeLwsLC0LDuoliU5UUNjEFXhlIEdu3wWudAqAa+enp5CpYoixpkvVcqKyvz8fEZMGBAQUHBlStXTp06NWPGjDfeeENuYyMePnwoJskwOjgN7Yj2ptUw2iQBtlG9erFixYo7d+6IdRCOSXZ2dmZmpvgf2wa5XsQnzhyfOFFQgfgViejHrdu13nJsG0vZ/NXWJs28lXqBsqhBth9STEyMclDxIYEuPnPmTF9fXxyxX3nllXXr1nEbNnhyc3ODg4Nr167dpUuXb7/9lmXh0JicnPzyyy+jFPzNOXPmyIvgp+vatSuy8AMiMTU1FTXjK7aSkJDAT8q6VYUlathr74ihTaenpwcFBWGnGjZsGBsbyysx2SSzP5GwUb16gYMSr4hwAlJSUsT/2DbI9SIyJmpVZpqgAiG9u6FfLt2ZKk/8aPaEfkP7C5Yoixp4bTdv3qxRowbGPE8RGDduHBz7ffv2Xb58ee3atXXq1NmwYQPLYoOhR48ecFjOnTsXGhoaHh7OsqZNm9aoUaNt27bhOH/y5EkMP3mRjh07YuXSpUs//vjj7Nmz27VrhxGFqUReXp6/v398fDwz3r17N4zPnz9/vRKWqGZvdkcMbXrz5s35+floPIzbt28/bNgwlm6ySWZ/IvlGJdILl2XlypXif2wb5HrRoWPQ1qIvBBXwa9MK/TLrfK6QrlxQFjXw2k6cOIGCGDA8RQ7cYRwVMXh4CoQAY4yts8Fw6NAh9nXHjh0eHh442N67dw9jZuPGjbwUhxXB0GJf79+/X69evePHj3ODrVu3Nm7cWG4sd/417LV3RDK4aTkZGRmenp7spI+ySXp+Ir5RBumFi1ItetGqVSulLvi+1BL9Mrs0TykQwoKyqIHXpj3MWC4Omzxl//79SPnll1+kp4Phhx9+YFnsK8ZPUVGRUIrDbK5du8a+FhcX46unjLp16yLl559/5sbywalhr70jksFNHz16NDIyEl7DCy+8wNIhgrwSeZP0/ER8owzr6MWDRw8y87PGxU3oGdnrtf89BdA+PDp8SvzUo8ePKs9pE9VOtehFkCn/IrBrB/TLtNwNSoEQFpQNkvkX2m68nsHAfGz+FWPJrF7wIqz+r776qrQq5eXl3Fg5OE3aa++IZGTT2KKXl9fIkSPhfVy4cGHTpk28GWpN0vkTMZ5VLx5VlG/P3hka3l31KYCw0LCI8MMFdOXcvqgWvYh5PUZ5/mLC3E/QLwM6vfqXwh0sJbss7+MFk15+rc2OUxlyS5RFDbKdkKKjo/v27StPkZ6eJrx7967S2Q4ICGDranphdj7Ci+BgjqP3559/XtXqfxw5cgTGt27d4ina9ho7IhnZ9LFjx2B55coV9nXx4sVcI5RNMvQTMZ5JL37+5e+jJ4/tqOMpgOCQzvGzZtItvfZDtehFUlLSJ0mThe6xv/Rgz75h6JruHu5Qjc69urbw98VX7xeb7j6zT26JsqhBthMSDqFwvPllyNOnTyckJPALDePHj/fx8cnMzETWunXrlCfzlHohVY6Zxo0bb9++3eT5Tvn4QWNgifF26dIlHN5RhF9MwUEbxtCdGzdu8CIa9to7on/TmD64u7vHxcVdvHgxIyOjZcsncz22XyabpP8nYliuFxCLfoPf1P8UQN933ogdPowkw06oFr0oLCzs1TtM2T2yS/MmL4p7rXNgnbp14Jk3beHTL7Y/c1TlC8oK918AdPTRo0f7+vp6eHhgyA0ePLikpIRlPXz4MD4+nl8sXLt2LS+loRfw6hcuXOjv74+Bh7Lz5s0zWYSRlpbWoUOH2rVre3p6hoSEyDcxf/58TMxr1qzpJrueqmGvsSOGNr1+/XpsFw5IZGQkxI7vl2SqSfp/IoaFeoFpCDwLo08B9Bv0JlRTXg9RXVSLXlRUVETHxCRvWqLsHmYXlEJZOhdWvVioF9uzd2IaYsFTACGhIZhHyasitJEf+qxIteiFVDmL7ta9mwU9B6Wo51Q7lujFg0cPuof3EM5Z6HkEAMuf0xdHx0QLRwlb3zlvGUYHKrNnNGrUaMiQIZgoikbGMdoMORplNfQCPuqmTZv+9re/iRkWIegFSExMfPvdgYY8U9ijlFAP8fyxRC8y87O6hYXK/1H9jwBgCY8Il89CDd05b12078PXGGwmYfbffPPN9evXsYOBgYHKM94M7e0KGG2GHI2ySr34z3/+s23btmHDhqHlZ86cEXItRqkXjx49GjFixDvvDcr4OkvZPYQFNrCEPZ35sgcs0YtxcROEpwD0PwKAZdr8GfKz3Np3zpu9v91+HgEQzg/t3LnT3d39wYMHPEu+XY39QtaUKVO8vb3r1avXv3//LVu2uFWOeaF+uRao7W+VHZDtglRVL/71r3/hH2nTpg3K4tOKYvFfU3ohVUoG/IXQ7qGpf1mp7CF8QS5sYEliYSdYohc9I3sKV9H1PwKAZcOBTX369GFVmb1Txez97XbyCACvnI/nvXv3Ytfkt77It6uxXx9//DEcLpaVlpYG4XAzpxdq+2tyFxhML1B81KhRmAlCKSIiIgICAqwrFv9V0QvGkSNHoqOjIyIjZi1I2JT7+a6Te9E98Il1pCAduXTOwq6wRC9e6/CacJee/kcAsOwozoBHwKrSvhNWz/3tdvIIgFRVL/AJ8YKEybP4djX26+7du/CV5FlTp07V1guz+2tyPhIXFwfPrkWLFs0rGT9+fFBQkNXF4r+aeiFVXjGB3MO7wdwNvQItwSfWkYJ0uhpib1iiF36t/ARp0P8IwJPlwpc4LLOqtPVCz/2qdvIIALdn6fAsMD/CgZ0VFLarsV/KxrMsDb1QFuEod4GBHWnVqhVmQ35+fkwvMJcZNmwYW5ejPM0BkCjaqVsOHjxY2DrhuFiiF4FBgYJ/of8RACx7S/Zz/0J7PqIxrqSqx3P+Vc/44UU07sPnxvLBpsceQ7GsrAz7xUvxLGG7JveLNZ7fz8uzlHqRn5+vc3+VeiFV3im8evVq+BSY0LVt27Z5pWQ8f/+CcCws0YuwqDDh/IX+RwCwbPtyBz9/IWneOW/o/nY+Nsz657yIxn34kqn77bXthco1sjT2i81HtmzZwrMwcWD7dfr0aaycO3eOpaempprdX+UucJg78Pjx471790ZGRnbu3BkTIvh9VpcM0gtnwhK9mBI/Vbg+ov8RACxzFs2VXx/RvnNe//3t8mNptTwCoKyco8zS2K8JEyY0a9YsKysLDUAWfhy2X7/++qu3t/fQoUMvXrx44MABuANm99fkLjCE6QNKjRo1Cl5G69atrSsZpBfOhCV6cfT4URNRGPU9ApB3sSAqKkp4CkDjznn997fL9aJaHgEwWblalsZ+PXjwYNKkSU2aNKlXrx48L349FVmYuEEmIC4RERHQLLP7K6nsgqTQC8b169dnzpxp9fsvIGRLCcdnx44dluiFWpRnPcvGnekx9BSAHWBSLxi2vr+TcFws0QtwuOBwcEhno08B5J073KNHD7qibg9o6IV1Ib1wJizUCxA/a2bfd97Q/xTAl98XDBk6hJ4CsBNILwgLsFwvHj16FDt8WL9Bb+qJf/Hlt0/Egp4CsB9ILwgLsFwvpErJSEhICAkN+XP6YqVGsCXvYsHGnemYhtBTAHYF6QVhAc+kFwz2FEBYRHjcvOkbcjbtKNp98PvDe0oyt3+5c07y3KioKHoKwA5xLL1IS0vz9/dXXuVxSpRX0yxAfrkQzJ07NzY2lq0HBwd/8cUXv5sawQp6IdFTAA6IA+nF1atXoRRr1qy5du2a8NScToTBY0VYzV5eXvfv3+eJZ8+edavE7BZNNszqenHr1q369evzO/127doVEBBg2ai0jl4QDocD6UVBQQG6/k8//SRm6MbksNSPRrwSVnPLli35PXJgypQpfn5+erZosmFW14tFixZ1796dZ/3666+NGjVSewhDG9ILF2XFihXif2wbnl0v2LGaI6m/ItRQHBCNECRssPF4JUOHDg0MDOS5oEePHhMnTuSWCQkJYWFhLOvBgwc+Pj6JiU8iwvCGqcVMMdkwVqfJwC4abVYLmyJVTkDws3BLMGTIkA8//FCeohMDemGZA0PYITdu3EB/Ev9j26ChF/vLirts/Lj+0kH4xLqY/RRlFA+1V4QaigOiEYKEjVger+TMmTPu7u5FRUUsF6MXuUjklqi5bt26ZWVlbFsvvfTSoUOH+HDViJlismGsTpOBXTTarBY25d69ezVq1MDPxcwYKSkpaKQ8RSd69aKkpAQ7LJYmHBCIRVJS0uPHj8X/2Dao6QUEosXy2HG5CQuOJ+MT62qSYdJp5/BXhGo8d6esQSMEifTUXv7q0H79+o0dO5Zb4pgvt8Tc4d1332UqAMt58+bxLeqJmWJyPqIM7KLRZo2wKewxxdLSUp4lVeoURIQFfzOEXr0ABw4cWEk4PuhVv/32m/jv2gw1vQjeMOGPB2YuKVrCFqwjRTSqRDmoTL4i1NBz/RohBbi9/NWhe/bsadCgAQY/phKY6axZs4alc73A9AHTBPg1GLfwI/gW9cRMMakXysAuGm1W7jsPg8CeURbOE8PNcbPolJABvSAIC1DTi/pL3pl/PJnrBdaRIhpVIgyq2yqvCFWOGY5yWGqMPW4vPB8ImcAkDk4H/AUcz1k6tywvL/fz88PEgcVq4FvUEzPFpF4oH6TUaLNG2BTmX+CH4lnS8/EvCMIC1PSi4/pxgn+BFNGoEmFQqb0iVGM+oowDohGCRFKMWMaMGTN69+799ttvjxgxgifKLdk5TnZrA2+zdswUZcMkxdZ5VRpt1gibws5fwKHgWWDZsmW2PX9BEJahphdZpUXNUt//KGfWguPJ+MQ6UkSjSgS90HhFqKE4IBohSEzqxXfffVezZk0PD4+CggKeKLfE4Zo5GjydtUojZorJhqnphaTZZrWwKcjq1KnTggULmBnj/fff/+CDD+QpOiG9IGyLml6AzNITHdb98YUlA/GJdTH7KUqnXe0VoYbigGiEIDGpFwD+Rdu2beUpapZCm9VipkimGqahFxpt1gibkpycjI1yS3b/RU5ODk/RD+kFYVs09MLhaNeunXAjg0Nw8+ZNLy+vb775hn3dtWsXdsSy2yNILwjb4hx6gfnCqlWrcOjmly0cC8yAhg4dytaDg4N37txZNV8vpBeEbXEOvYBv7+3tLb/p2zUhvSBsi3PoBcEgvSBsC+mFM0F6QdgW+PCWPYRO2BsVFRWkF4Rtefz4cUJCAkmGE5CdnX369Gnh/yW9IKzMb7/9Bi9jOeHILF26NDMzU/xrSS8IgtAP6QVBEHohvSAIQi+kFwRB6IX0giAIvfx/vub2rkkNFyUAAAAASUVORK5CYII=;fontSize=11;fontFamily=Helvetica;" parent="1" vertex="1">
          <mxGeometry x="130" y="450" width="176.74" height="100" as="geometry" />
        </mxCell>
        <mxCell id="c_21xc94MHx_ofup2Neq-45" value="" style="shape=image;imageAspect=0;aspect=fixed;verticalLabelPosition=bottom;verticalAlign=top;image=data:image/png,iVBORw0KGgoAAAANSUhEUgAAAhsAAAGxCAYAAADLSHSoAABvEUlEQVR42uydB3gUZdeGQ++9d1B6r9KRDiIWxAqCFXuv+FlQVGxYsGKvn+2ziwUriqjYxYoNe0VsWLC9/9xv5sw/WTbJbkjCJnnu6zpXsruzszOzO/M+c855z8nKyspyMpmsSO32wJoH1iSwBoHVDaxmYFUDqxhYuSwhhCjlOCFE0REKjk0CaxVYs8AaBlYnsOqBVZbYEEJIbAghCkNsdA2sfWCtA2saWP3Qu1ElsPK6DAkhJDaEEBsqNvrEBEfLwBqH3o2qEhtCCIkNIURhiI1BgfUOrEtg7cJwSr0wlCKxIYSQ2BBCbLDY6Jj1/3kbhFHI26gdio1KgVUIRYfyN4QQEhtCiAKJjR6BdQoFh4VRmJVSIxQb5SU2hBASG0KIDREb/QLrHno42oZhFEsSldgQQkhsCCE2WGwMDqxvVnaS6KaBtQhDKXGxIaEhhJDYEEIUWGyMCGyzwHqG3g2mwDaKiY1yEhtCCIkNkRJt2rRxjz76aL7LPf/88+7ll18u0Gd8+umnrkuXLq5p06bu888/10EvGWJjbGBDQu9G58DaZGXnbdTKyq4iKoQQEhtlmd9++83ddNNNub6+YsUKLx7g22+/devWrct3nXvvvbe78sor096Wf/75x91+++1ebBQVr7/+erQ/yVi8eLH7+OOP9cNIT2xMDL0b/QPrlpU9/bWJxIYQQmKjjPPhhx+6o446yrVu3dodcsghOV7766+//KA/YsQI169fP/fcc8/l8GwwGFetWtVdd911bvz48a5Dhw5u+vTpXiycddZZrlq1at4zccQRR/j38f5Bgwb55bCrr746h7fkzDPPdC1atHAnnHCCa968uV93p06dvGfjwQcfdL169XJt27Z1m2yyibvmmmui965atcp/fsOGDV379u399hjXXnutFy2bbrppjn1488033fDhw92AAQP88r///nuOfb/rrrv8Z2+zzTZ+X//991/9WPIXG5MCGxmGUkgU3URiQwghsVFGYeB86KGH3JZbbukH/fPOO8/9+OOP0etfffWVO+WUU7wA2GmnndyyZcuShlG+/PJLP8ggEsw7woD/2GOP+cdDhw6NPBvfffedq1WrlhcvJnLq1q3rB33o2LGj3x4b9G+55RYvDoDnatas6R544AH/eMmSJa5ixYrewwKDBw92c+bM8fv1zjvvuBo1arg33njDPfzww/4z3nvvPb/cnXfe6UXMn3/+Ge3La6+95vbcc0/XqlUrd+yxx+bwZrC+RYsWuQkTJnjBcuGFF7qffvpJPyCJDSGEkNjIj//+97+uWbNm7t577/VeiEQQIIRAvvjiizxzNhAlHNt4TgWeC/M6xMXGjTfe6L0ScWbMmOFOPPFE/z9ehLi3Ii42YM2aNTm8C3hNli9fHgkeEx4mbPDK7LXXXm733XfP8ZmIiscff3y9fVq9erUXG7Vr1066zytXrvRiaKutttIPSGJDCCEkNvLj7bffdmPGjPHehAULFriff/45x+unn366D2dMmzYtaV5Dotj45ZdfotfiAiP+P16BKlWq+PeaNWnSxB1wwAGR2LjvvvtyFRu8Hw/GZptt5gYOHOgqVKjgQyLkkrANiItEtttuO1enTp0cn9mgQQN38803r5ePss8++3ivx5FHHrmeFwgPCUKDUMz111+vH5DEhhBCSGykCiGHgw8+2LVs2dL/5e7d+OOPP9wNN9zgB3YGeDwTlhRaELFBDkSPHj1y3RbExv33359UbBD+aNy4cRTi+Pvvv30+B2Ljm2++Wc+7Qojmhx9+8Dko7FcyWAfbNHLkSNezZ0+3cOFCt3bt2uh1BBgCp3Pnzm7ixIl+25J5gYTEhhBCSGykAGLh0ksv9Z6DZLz00ktujz32cJdccklaYmPUqFFu/vz5/n9yQvAqkCsCDOyEamxqbF5i46qrrvI5Ewz2eBrwvBBGsdyQYcOGeY8Er3/wwQc+T4PZJkuXLvUJqiZSPvroIzd16lS/veSOkI/y9NNPJ93nY445xie2sj4hsSGEEBIbxUyqYgMBQ2Ln9ttvn2M2CuEIZo3Mnj3bexjyExt4GcaOHevatWvn+vfv74UCQoWwx1tvveU+++wz/3q9evX8MogTgxkvXbt29Z/XrVu3PKf3CokNIYSQ2BBCYkMIISQ2hJDYkNgQQkhsCCEkNoQQQmJDiBIoNuLlyun8qnLlQgiJDSFEoYoNGrENzcpuxNYlsLah2KidlbPFvDq/CiEkNoQQBRIbhFAGBdY7sE5Z/9/1FbFRORQb5SU2hBASG2UcmpJRxKt69eq+lkXv3r3dRRddFJUKt+muNCjLZPLbzpKyH8rZEEIIiY1SBXUvOFbUrzjooIPc4Ycf7mtq8BzlvCU2hMSGEEJIbBSYTz75xPcbadSokW9kZlD50wTHq6++Gg3SW2+9te9rQtEuxEm8rwlFtSjSRS8Ueqwcf/zxUfEuGqfRc4VqojQ922+//aIurFQpZd0UBaMKKFU8ebz//vtH66bYF8/NnTvXP543b55r3bq198LgkbEW8vltZ6LYoBQ7re1p1EYpdFrWx0ugC4kNIYSQ2CiE8AnHCW9GIgzsWWEreRukGdxpQ08HWSp3MphT6fP999/3r++6667uhRdecOeee65vLX/PPff4dSEIKleu7NvFUwm0fPny7uyzz/av7bvvvv69hG4uu+wy3zCOniiICYMS4+XKlfOlx+ltwvJ0d3322Wf9sgiKuJjIbTsTxcbRRx/tH1MKHcGCSJo0aZJ+GBIbQgghsVFY0MOE43TOOees99q1117rX2NAtkGa5mUGzc54btGiRb65G/8PGDDAN3JbtWpVtBwN0nhtwoQJ0XP0Y6GceFxs4L0wDjzwQP/ca6+95r0PeEMoiW5eErwteF+A9u8s+/XXX+e7nYliA48GwsSarR133HFe1AiJDSGEkNgoJBAGHCc6pSaCZ4DXECQ2SE+ePDl6nVAGzyFK4IILLvAN0MIByAsPmqHh6eBxxYoVXY0aNbwRuiFsERcbNH4zli1b5p877bTTfKt3/qdDK7z55ptuxIgR3nOCtwQvCa/TKyW/7UwUGyTEIi5su1iffjcSG0IIIbFRiJCfgAioX7++9xgYa9as8WEMBmLCGjZI9+nTZz3vA6ERYOYKRkjFPCYkmOJx4P9x48b51+IWFxt4KwzW07ZtW9/qntwNRADbBHSVZfnly5f7x3hMEsVGbtuZKDZoJV+nTp2k2yUkNoQQQmKjkJgzZ44fNJo0aeJDDocddpgXGjxHu/V4LgSDPiEX8i5I5mSgpvsruRl4CcjvIPRxxx13eI8DyZ4wevRo7zm47bbb/KDft29fd+ihh+YqNmyWDGKnYcOGbsqUKdHzdIVleXI38Mzwuj1GMOW1nYliw/JSTj31VPfUU095j8iYMWP0o5DYEEIIiY3C5sYbb/RhD/IXMMRAvGU7s1Y4njvvvLObMWOGX4Z8B0Ic8Ndff7ljjz3WtWzZ0lWqVMmHU2bNmuXWrl0b5VnsuOOOfjYKXpSpU6e6L774Ik+xsWLFiigkc+edd0bPP/LII76lPNvAOgm5MJuGRFDLHcltO5PNRiFPg2UQQ0OGDPHrExIbQgghsSGExIYQQkhsCCGxIbEhhJDYEEJIbAghhMSGEBIbQgghsSGExIbEhhBCYkMIIbEhhBASG0KUVLGxeWADAusWWDuJDSGExIYQojDFxoRQbPQPrEtgbQNrHFhNiQ0hhMSGEKKwxMawwPoF1jUUG40CqxFYBV2GhBClXmzIZLIitXWBjQ3FRt/Qs9Em5tkor8uQEEKeDSHEhno2xgU2NCY24p4NiQ0hhMSGEGKDxcaYBLHRJhQbNRVGEUJIbAghCkNsjI2Jjc6xMIpyNoQQEhtCiEIVG/0URhFCSGwIIYoqZ2NYgthQgqgQQmJDCFFoYoOpr8OzNPVVCCGxIYQoIrGxRWAjsrKLenXLUlEvIYTEhhCikMVGvDeKypULISQ2hBBFKjbUiE0IIbEhhJDYEEIIiQ0hJDaEEEJiQwghsSGEEEUiNtasWeNq1KjhRo4cme+yxx57rNtrr72SvvbQQw+5TTfdNHr8559/utNOO8116dLFValSxdWuXduNGzfOPfnkk9Ey1157rRs6dGiJGoy++uor16FDB/fWW29t8Lpuu+02N3jwYH/8q1Wr5vr06eOuuOKK6PVVq1b5we+vv/7K+OPyySefuE022cR9+OGHEhtCCFEWxcbTTz/tB8lknH/++W7GjBmuSZMm7r333is0sbHVVlu5rl27+s9msPzhhx/cWWed5QfVe++9t1jExj///FPo6xk/fry76KKLNnid8+fPd/Xq1XPXX3+9+/XXX90ff/zh7rrrLte0aVN31FFHFYvY+Pfff70V1npuueUWt9lmm0lsCCFEWRQbU6dOdY8++mjS1/A8PPPMM15I2CBnvPjii65nz57+jnXy5Mlu1qxZkdj49ttv3RZbbOFat27tBg4c6L0YJjYWL17svRnc7SZy0kknRcuZ2DjooINcixYtXKtWrdxVV10VDfAHH3yw/+z27du7fv36uWeffda/tm7dOr+tPN+mTRsvbExMsU62a9ttt3V9+/b1noMFCxZEn//33397YfXII4+ktR546qmn/P7itYHffvvNHXjgga5jx46uc+fOfvmPPvrIv4a44vt644031jsGvFa9enXv2UjkiSeecOXLl/dCw8TGlVde6b0pjRo18p/HPgDHqlOnTn77+ctyca8R3y3HmmP33HPPRQKGz0b4NWjQwB/jKVOmrPd7+c9//pPWej7//HMvOBCYd999t8SGEEJIbGSzZMkS16tXL///xx9/7O+qGYANBg7uwIFBtGHDhpHY2H///d0222zjRQF35sOHD49EBAP42LFjk27LBx984C/o/GUgq1SpUjToEmLhMQMXgoVBlDt+WLRokTvssMP8/7Nnz3aDBg1yP//8s3/MgLnDDjv4/2+++WYflsDTAhdffLEbNmxY9PkcB4QN253OemC//fZzhx56aPT4hBNOcCNGjPCiwzw/9lkIkv/973/up59+Wu8YsC+Isdw8Ly1btvRCwsQG+81A/uWXX7pmzZr548Uxr1ChQhS2+PTTT92WW27pfv/9d/fwww+7unXrRp6qO++80zVv3txvE+soV66cO/XUU/0633zzTe9t+uWXX/yyHAsev/vuu2mtxzj55JPdTjvtJLEhhBBlQWzccccd/g4eY2DDZc//eAqMXXbZJUeOwNZbb+1uvfVW//8XX3zhL7zffPNN9Pquu+4aiQ3utON35gyOJjZ23313N3PmzKTbxcDMepcvX+7FRtu2bXO8zjpY7+uvv+5q1arl79a//vrr9Za57rrroscMuBUrVvRCCVc+3gfju+++c5UrV/b7A2z/Mccck/Z6AC9PfJ+7desWHa/4McNzkRd8ZuK64xCKwGNgYoO/BtuP0DMPDfuycuXKHO9nGb6DOHiNHn/8ce+5YZ3mgQEEJ+IKbrzxxigUku564LHHHstz3yQ2hBCiDHk2GISrVq3qEzfr1KnjjTv5UaNG+ddXrFixXr7A4YcfHomN+vXr51gneRgmNhgAR48enadngwEUsUEIJnGgveyyy/z/DGrbbbed3zaWI//DPpuBltCHGctwd49IsLCHwR0/oRTuyHkvd/MFWQ+eH0IpBuEDttHAC8O+4RXIiwcffNALIAuHJPNscGxMbOCtMDi25jnA47Dvvvv65du1a+cuv/xy/7wds/h+sa0IChMJ5s2Bc845JwqlEC7DG1SQ9QDHFnErsSGEEBIb7uyzz17P+8DgR14Ag9hnn33mL7yIEmPnnXeOxAbCgjCBsXDhwkhsMAATDkFYJDJnzhyfX2D5AAyScfC8xNdrORqEcxo3bhx5GHDpJwORQG5BHAZHwjwPPPCAn/ER91Sks55EsdG9e3e/nGHHLFnoJA6vI+xIDk2EUBLeFdZlYiOe+7Lnnnv6vI1kuR6EP5glc8ghh/iQUG6zaVinhU2AsBXbY39Xr17tn093PRIbQgghsZFj9gD5EAy+ieyzzz7u6KOP9ssgHixng7t1QjEmNhj0LGeDu1tyH+KzUbhTJnGSwRnvyI8//ujvoBnMyMcwsUHegT0mUZU7fsImhGW4azfPCu55hBCQJ4DnxHIl2A/L50gmEshvIPdg++2397NvjHTXkxhGIdl18803jzwPRxxxhBszZkyUs0GiZOKdv3HBBRd4rxIhFZuNcs8993hBw3rjs1FOPPHEyBtFzgazVggzMV35+++/j17j+0FsLF261K+HPBzLt+E3gDDITSRwHBCTfKdGQdajMIoQQpRRsZEIwoOByWZVJA4WDOp4Exj8SRIlKXDixIn+LheRYfkJDKyEIfAWnHvuuTnyQVj3vHnz/CwN7nRxx0+YMMEtW7YsWoZ8DGpvkIPAcng57G6fu//p06f7EAHr5TNMMDEwH3nkkV4wYUOGDPEzZ3ITCcD0XjwG8RyUdNdDgqiJEcs/4Ziw7QgrBmo8EvnNRjHw4CDSmNWBV4LPi+eQvP/++/7YER4hr4Jjwecj8BCDp5xyij9m5L2QQ4OAMa6++mr/3bFf5JbcdNNNeXokWJ7nEz096a6HbVKCqBBCSGyIAoKXhryFZCJNZHvMCC3heZHYEEIIiQ1RQJjSS36KSO6pGTBgQKEUCpPYEEIIiY0yC/UlCJm8/fbbOhgxmMFDzk6ypGCJDSGEkNgQQkhsCCGExIYQEhtCCCGxIYTEhhBCSGz8P9SboLcFUyvNmMY6bdq09cqDZzKlqU27QXE1pgRTh2RDeemll3wZeqqlUsOEvAp6uKxduzZahhk2uTXqyySYBcR3TSl+iQ0hhMgwsZGsxTxiI7FUOMvQ+TRe2CmTKU1t2sEas1GfhOJZGwo1Tajhcfzxx/suvawf8cGMEQZtm8Jb1GIjt4ZzBVkP3yd1YBJ/zxIbQgixkcVGsnLlycQG3H777b4rqkFLcQpPUTQKo8iTQTGp8847z7dW5//ddtvN9/2gABiFuKioadBhlkGOUuUUh7ICVMcdd1yBWpxnUpt2yqGz3nivk4suusgXCcvvGDLQn3nmmf6Y09SNYmYIqPhsF3qVsB1sX//+/XP0Y6HYF5+VDAQFBdMSoeooFVVvuOGGHNvAutgPiq9Z8bNnn33WfybbTQExut6acEt1vziO9OGh6qlBsTM8UewvBeLow8I6eB+Fy+xYJh4fYJ/i3XclNoQQogSJDapfUhWUstVACWw6ryJAgK6oDFLWyIwpoHSOtQEMN/2sWbP8YwYrKnbSb4PXqCBKa3X7HAZpqpUWtMV5JrVptw6s7I8xdOhQX48jlWNonwkMqAz6BuvkWFl/FFreU+bcypTzvSabbspxZBupApsMOvhiNqAPGzbMv4fKsVbV1QSLiQi2EUH56quvpr1flIo/4YQTos/H22K/MwTLQQcd5L9Lwjs8vuSSS5Kux4Qr3iuJDSGE2MhiI78W84gNBtp4x1eMQdkGftqNJ7aAp+y39ergTtsGGxvg77vvvuhxw4YN3QsvvOCLPVHSOw6ixO5OC9LiPNPatLMv9JUx0YJgwvuSyjG85pprotdofhb3RuCFoUx6HDwA9F3JC/qZZCVpAW+wz3ikTGzE80PYZjwpJhIY7J9//vkcnpt094vttQZ8gCcJL5g1r7P+K4C4oXFesvVY7gaeq9z2TWJDCCEy1LOBJ4HQQLyXx4UXXuiFSrzFOIPzAQccEA0E3GnHXed0LTVYFlc7bn4bPIzZs2dHd7YFaXGeaW3a6alioRRySRikUz2GcYHGMaG/SPy7swHc4M4/vyqmeAgYkMnXyc2zgZfCvrf498ixZRuBBno0huvRo4cXrIhRvB/p7hfv4f2EUsgbwTPBsVqxYoU/lvH1EDKh6V2y9cSFLCEeiQ0hhChhYZTDDz88hygg2ZJBJjdSFRt4WeJ3teY54POgIC3OM61Nux0PPB/kptx7770pH8P7778/V7FBeAExFIccElt/XvBd7rHHHus9j8eFkAfN5ux7ix9HcjnIq0mEcA1N2S699NK09wvw/CCc6Cps3/2aNWv8sbSwUCrrkdgQQogSLDa4i+Xu3AYeHnM3b4KCu+W9997bvfzyy2mJDQYUBjdbFpc5d7nxu+50W5xDprVpnzt3rveYcAxtpkcqxzA+mCaGURBAvN+6ySIymMbKeu313MIJhD7wVjHV1WajvPLKK14McbzjSZj0fOH48RwJvmwH3giSQy2xk8TQUaNG+XyKdPfLZkWxPsQSeR8GeUIkCtuMkzPOOCPqfptsPQqjCCFEBoqN3OpsJJuNQhihcePG/u43PuOAAYI4O+EPG6RSFRtAx1TyKGw2SrwWhsXps9JocW5kUpt2kiRJykz0iOR3DOODKQmivXv3zvH+yy67zH8+y7KeeNJnXrNRAHFBnQ1EFGEnPp9EzXhYibAFs4r4fsiDmTRpUuRd4vvgszk+GLk2iJJ098umCfMbSfSIMBuFMBr5RBghKIRfbuvht6QEUSGEKAFiQ2QmNvWVHBqRHEJgeF4kNoQQQmJDFJDTTjstSp4VOWGmD2Eqph9LbAghhMSGKCCEIsihsKJbwkU5I9QvIXRWVEhsCCGExIYQRYrEhhBCSGwIIbEhhBASG0JIbAghhMSGy576yvriU1eBehzJCjolgzoOVleBap3E04EpjpTCpvBS4lTWRKiZQEIk5bGZokrdDHpzxKfQlsQ28UyPZSotvU2Yzmn9V4TEhhBClEqxkVuLeepLYBTEKojYoIiTdUn97bffouJYFJBiW61zaF7Q0p5aFmwjYoL6HvQ0oWaGVcksKW3i4+sZP358VP+CSp3W70VIbAghRKkUG7lVEKXRGAWf6BWSm9jIrTW8CQKKK9FK3jwb9AuhwBPbSsdOeowktpCnUyxVLRcvXuy9GfFS4gYVQCkWFRcbRdkmnkJcBWl1n7geSq5TdIriWFZFFAGCoMqveZqQ2BBCiFInNmjGRd0CikjRECtRbOTVGh4QFzawx8Mo8QqbFKdCUJjXg+qThEooCX7UUUf5KZ7JoA8H6+BvcbSJL2ir+8T1AF1araOtcfLJJ0fN34TEhhBClAqxkUqL+enTp/v/KVVN2WlKeMfFRn6t4VMRGzBkyBDfvAvo4IlnAPCszJw5M+n2E5ZhHcuXLy+2NvEFaXWfbD10LEUIxUGg4e0QEhtCCFGmPBsmNhiw+/bt61u7x8VGfq3hUxUbLDN48GD/P23NaU8OCAQaguXl2UBgFFeb+IK0uk+2HkJLhFLi4DlB9AmJDSGEKJNiA1588UXv/WAANbGRX2v4VMWGtYNHQOCFsCZbeAYqVarkn09kzpw50WcXV5v4grS6T7YeiQ2JDSGEkNhIIjZsUCWp08RGfq3haTc+f/78fMUGzJgxw7cSJyE1Dp4EPpPBmdkmtC7Hw8BgTwJpXGwUR5v4dFvdJ1uPwigSG0IIUebERjKSiQ1CAYQi4rNR8moNTx5GzZo1fUvw/MQGHgeew1sShyTLefPm+dwQ7vwJV0yYMMEtW7YsWqY428Sn2+o+2XpIEGX74rCNShCV2BBCiDIlNoobkjeZsrpu3bpSP2Ah0MjriE997d69u/fECIkNIYSQ2CgCmO5K+GTu3LllZtBiSu/ChQv9/8zqoVZJYRQOExIbQgghsZEA+R6ULZ82bZoXHWUF6m+Qi0L4iEJgyZJghcSGEEJIbAghsSGxIYSQ2BBCSGwIIYTEhhASG0IIIbEhhJDYEEIIiQ0hJDaEEEJiQwiJDSGEkNgQQkhsCCGExIYQEhtCCCGxIYTEhhBCSGwIISQ2hBBCYkMIiQ0hhJDYEKJMiY0tAts8sAGBdQusncSGEEJiQ2QkS5Ys0UEomWJjXGBDA+sbWOfA2gTWKLCagVXQZUgIUerFhkwmK1K7M7ARoVeDEEr7wFoE1iCw6hIbQoiyQIPwwkcMuWtgfQIbnJUdX56QlR1rlmWGfdimTRsGrw91LEqM4dEYnpWdq9EzsE6BtQ2saWB1A6sWWHldhoQQpR0ueMSOW4d3XCY4BoV3YyNlGWHH16lTx7vl+ctjHZMSYcNCjwZCo3Mo6hH3DQOrHVhViQ0hRFmgdujdaBYTHF3Ci2P/8I5MtvFt5fnnn+/FBn95rGOS8YbIIEeje+jRQGi0DKxxYPWysvM1KktsCCHKAjVC70bDUHC0ysrOlO8Yejm6yza6HWxeDSP0bhysY5PR1i30ZiDg24YeDYRG/VDkk69RKbByugwJIUo71cI7rDqhh4OLYfNQdLQN78ZkG9feMq+GEXo33tKxyWhDtLcJRUbTUNDXiwmNKlnZ014lNoQQpR7cuFVDD0et0MtRP7wwIjyayDaqzUz0aiR4N2bqGGW0NQpFfN1QZNSMCQ28GgqhCCHKBBXCi56JjqrhxdDEh2zj2uuJXo0E78brOkYZbSYuqoXnVuXwfKsYCg15NYQQZYJyoZWPWYXQKso2qk3JzauR4N2YomOV0WbnU/mYwJDIEEIIkRG8mptXI8G78aoOlRBCCCHSZZv8vBoJ3o1tdMiEEEIIkQ75ejXk3RBCCCFEQUnZqyHvhhBCCCEKQspeDXk3hBBCCFEQCtpd9EkdOiGEEEIIIYQQQgghhBBCCCGEEEKIIsHpEAghhBBCYkMIIYQQEhtCCCGEEEIIIYQQQgghhBBCCCGEECJllLMhhBBCCIkNIYQQQkhsCCGEEEIIIYQQQgghhBBCCCGEEEKI1FHOhhBCCCEkNoQQQgghsSGEEEIIIYQQQgghhBBCCCGEEEIIIVJHORtCCCGEkNgQQgghhMSGEEIIIYQQQgghhBBCCCGEEEIIIYRIHeVsCCGEEEJiQwghhBASG0IIIYQQQgghhBBCCCGEEEIIIYQQInWUsyGEEEIIiQ0hhBBCSGwIIYQQQgghhBBCCCGEEEIIIYQQQojUUc6GEEIIISQ2hBBCCCGxIYQQQgghhBBCCCGEEEIIIYQQQgghUkc5G0IIIYSQ2BBCCCGExIYQQgghhBBCCCGEEEIIIYQQQgghhEgd5WwIIYQQQmJDCCGESJVysowzp2NQokwIIURA+dAqBFYxtEqBVZbJZIVilWLnVoXYOScxIoQoM1QML4hVA6sWWI3AagZWO7C6gdWTyWQFsrqh1Q7PqerhOVYlJkDK6xIkhCgLOJlMVuTWMBQgtUNBXy0U+RXk4RBClAmxIYQoOkKx0SKwJqHoqBt6OqqGHg6JDSGExIYQYoPFxiaBtQ6sWUxw1Ai9GwqlCCEkNoQQGyw2ugbWPhQcTQNrEFitrOz8DYkNIYTEhhBig8VG35jgaBVY48DqhKEUiQ0hhMSGEGKDxcbgwPoE1iWwdoE1D6x+VvYMlQq6DAkhJDaEEBsqNkYGNiiwXoF1DL0b5G7UkNgQQkhsCCEKQ2xMCGx4YP3DcErbMJRC3kZFXYaEEBIbGci///7rLrzwQterVy9XrVo1V7duXTdkyBB35513Zuw233777W7x4sUpL//MM8+4SZMmuXr16rlKlSq5TTbZxB155JHup59+ipbZd999/WD26quvZvT3ld92durUydWpU6c0i41JoXdjs8C6Z2XPTmkisSGEkNjIYA444AB/EW/Tpo079NBD3VFHHeVat27tn7vmmmsybnv//PNP17BhQy8WUmHRokWuQoUKrkqVKm633XZzxx13nBs4cKDfv969e7tff/1VYkNiQwghJDaKivfff9+VK1fOtWjRwv3www/R86tXr3YjRoxwp59+un/8zz//uAsuuMALEjwD/D311FP984CngEHuuuuuc82aNXMNGjRwJ5xwQo71zZw50zVt2tTVr1/f7bTTTu6bb77xr+2xxx5+ELnyyiu9V+XGG29069at8+9v1aqVq1q1qhs/frz7/PPP3VdffZWjmiSfCS+88ILbfPPNXc2aNf2+XHLJJdFnd+jQwS+7ZMmS6Dm2e7vttvPPn3/++TkG8YULF7quXbt6ccIya9eu9a9/8cUXbtttt/XbX716dTd8+HD38ssvR+u86aabXLdu3fz2du/e3T399NP++euvv96v94wzznDt27d3e++9txs0aJA/7l9//XUOkcD2I37eeecdN3r0aFerVi3XpEkTd9hhh7m///47pe1MFBt5HRuJDSGEkNgocq6++mp/AT/66KPzXI4BmeWmTZvmHnzwQbfDDjv4x5dddlk0wDEA77rrru6hhx7yj3n9lVde8a8TwqhYsaK79NJLvbekfPnybuLEiTkGT7wMrG/lypV+e3gOsfPcc8/5QZJ14NW46qqrom157bXX/IDNoIyoeOmll9wxxxzjX2eQ/fjjj/3/ffr0WW+fEAO8lrgdm222mbvnnnvc9OnT/eOTTjrJv86+sY8PPPCAD8v069fPh5uA51h2ypQp7vXXX3djx471guu3335zt9xyi38NoYXgQPQsWLDAP8fxB8QFj/G8QM+ePV2NGjX8snhweO3yyy9PaTvjYiOvY1OCxcbEwEZk/X/ORjuJDSGExEYGM3/+fH8B529edOnSxVWuXDkKOXz//ff+fQMGDIgGOB6vWbPGPz7nnHP84xtuuMF9++23/n/u1I3HH3/c3XvvvTkGTwZlA48G+SPmOSH0YZ4AxAfLWxjFBBMDOTDAI2YIDzHA8tqWW2653j6tWrUqxz7Ydtx111059rF///7+Md4Y1ovHBRHw+++/R+uaMWOGX5ZtA/JJeExuiYkN1m+wH4R28JTAmWee6Zd59NFHfQ4NIZJ3333Xv4b3hNf222+/lLYzLjbyOjYlWGyMDWxoVna9Daa/tg3FBr1SKFluXWBVulwIIbGRCRD2YLuPOOKI9V7766+/ov+5OyY8EgcxYM8luu4JiVhoxAZLPBF55SAgDAw8CIgL7u4xhA7LPP/88+uJjbPPPts/Jpxgy5vH4tNPP/X/4ylI5KmnnvKvTZ48Odft4HMJGZk4GTdunPfQsBxhibPOOivy3PAc283nc2x4jIgwsZEo6FgX6/jjjz98WAXvjYmrk08+2QsuPt/2fa+99kppO+PfRV7HRmEUIYSQ2CgWGIy5wyYv4Lvvvoue5265bdu2bpdddvGPyQ1gQLO8APNWkGiZn9j48ssv/f8jR46MXr/77rvdxRdf7PMQkiU8du7c2a+PnJK4cWeeKDZuvfVW/xiPQ3xZcjzMK8PrDz/8cI6cjW222SbKfYgP4uZx4XjEPR/2Po7BY489FiWZksuB14H/77///hzbwHE0sWG5IQbhJJ6/9tprvbAiMTcugqZOnZpjfxPFRm7bGf8u8js2EhtCCCGxUSzMnj3bX8S5kz7kkEN8voTNRrE8AZJDeUy4gIGWgdAGyvzEBpDDgKghJ+Pmm2/2d/4WVkkmNubOneufIwmVwRfvw5gxY3zogjyNrDBngXAMoRvyIxBEPCYBkgRNQjjwyCOP+KRWxJLNRuG9rGPw4ME+GTW+HYgIwiCWC8G2APkZPXr08PkaL774og/NsE4Sa00gbL/99m7p0qX+OJIn8uabb+YqNn788UefTNq4cWP/OrkegGDhMUmxfM5WW23lP4fjRVJtftsZ/y7yOzYSG0IIIbFRrImixPwRAQxUuPXjdTa4oz/33HO9ICGM0K5du8gjkIrYYJAk54Epq8zm2HHHHf3MktzEBgIAUcDn4fpnoF+2bJl/DW/IhAkTvICw8AgJj8OGDYtmXBAWIpnUIPxCqIPZLrxv00039eu3HJTEWTHMriH0gGcH7wIw8PMZbA/hEhJESQw1mEWDF4VjiGfGkj9zExtgM2IQMfHw1c477+w/A+8SSaCzZs3yguOUU07JdzuTzUbJ69hIbAgR5fjIZJlipVNsCCGxIUq5mCgfWoXwd4KRUFxZJstQqxT7rVaI/YYlNoSQ2BAZKjQqhhdwugNXy8rupVMzK3sWU93A6slkGWJ1Q6sd/karh7/ZKqEAkdgQQmJDZBgmNJxMVgKtYShAaocCuZrEhhASGyKDxYYQJfB61yiw+qGnw7wc+jELIbEhMlBsVNb1WZTQ612rwJqFoqNeeJ3Tj1kIiQ2RYVQI8zR0AomSeL1rH1ibwJqHgqOuxIYQxXPybRnY6MAGSmyIFMVGNV2fRQm93nGN65iV3ZaheZjDoR+zEMVw8m0Vio3BgfUIbNPAmoZio4LGVpFAxTCxTieQKInXu36h4OgQWOvwxkqZszJZMdhWMc9GXGzUlNgQSagU/jY0eomSKDaGZGU3newaenGby7MhRPGFUUaGYqNnQhilvMZWkURs1C6r12caNNJNOj+oskzTzIJAjy2qJzdt2rTE9l3K4OsdN1aDAusdhlNaS2wIUTwn3xaBjUrI2VAYReRG5TCprtScB7QmuOmmm3J9fcWKFV48AE0zrf9TXuy9995Re4l0oJXF7bff7sVGUUHfKNufZNAj6uOPPy6t17uJgY0IrH/o3WgrsSFE8Zx8k0KxwWyUbjGxoTCKSKRcKDbqlYbr84cffui7Q9Mok2aPceipxKA/YsQI37eJbtFxzwaDMY0fr7vuOt/ksUOHDr6JI2LhrLPO8j2d8EzQOwl4Pz2yWA6zXk+2zjPPPNP3WqKjdPPmzf266cuEZ+PBBx90vXr18r2d6N9Eh2tj1apV/vPpk9W+fXu/PQaNPREt9K6K7wMNLYcPH+47W7M8DTnj3HXXXf6z6eTNvv7777+l7XqXOPtOYkOIYjj5tkxy8pnYUBhFlCqxwcD50EMP+S7TDPrnnXee7xht0NCSBo0IAJpdWsPKuDBgAP7yyy/9+YNIMO8IAz5dvGHo0KGRZ+O7775ztWrV8uLFRA5NLBn0oWPHjn57bNCn2STiAHiOpo/WpHLJkiW+eSceFqDT9pw5c/x+vfPOO76x5RtvvOEefvhh/xnvvfeeX45GoIiYeNNIOn7vueeevkHnsccem8ObwfoWLVrkm3QiWC688EL3008/SWwIITZIbIyKJYgqjCJKrdj473//65o1a+buvfde74VIBAFCCOSLL75I+n4TG4gSjkE8pwLPhXkd4mKDDtZ4JeLMmDHDnXjiif5/vAhxb0VcbMCaNWtyeBfwmixfvjwSPCY8TNjgldlrr73c7rvvnuMzERWPP/74evu0evVqLzZq166ddJ9XrlzpxdBWW20lsSGEKPDJNzmWNNVTs1FEaRYbb7/9thszZoz3JixYsMD9/PPPOV4//fTTfThj2rRpSfMaEsXGL7/8Er0WFxjx//EKVKlSxb/XrEmTJu6AAw6IxMZ9992Xq9jg/XgwNttsMzdw4EBXoUIFHxIhl4RtQFwkst1227k6derk+MwGDRq4m2++OcdyrGOfffbxXo8jjzxyPS8QHhKEBqGY66+/XmJDCFHgk4+pr2MSxIaKeolSnbNByOHggw92LVu29H+5ezf++OMPd8MNN/iBnQEez4QlhRZEbJAD0aNHj1y3BbFx//33JxUbhD8aN24chTj+/vtvn8+B2Pjmm2/W864Qovnhhx98Dgr7lQzWwTaNHDnS9ezZ0y1cuNCtXbs2eh0BhsDp3Lmzmzhxot+2ZF4giQ0hRLqejcTZKBIbotQniAJi4dJLL/Weg2S89NJLbo899nCXXHJJWmJj1KhRbv78+f5/ckLwKpArAgzshGpsamxeYuOqq67yORMM9nga8LwQRrHckGHDhnmPBK9/8MEHPk+D2SZLly71CaomUj766CM3depUv73kjpCP8vTTTyfd52OOOcYntrK+Uni9k9gQIoNOPokNUSbERrqkKjYQMCR2br/99v6xzUYhHMGskdmzZ3sPQ35iAy/D2LFjXbt27Vz//v29UECoEPZ466233GeffeZfr1evnl8GcWIw46Vr167+87p165bn9N4yfr0rvB/zbrvt5o4//vhSfzDJND7ttNO8EiZGSMLPuHHj3JNPPhktw3QoToqSAMlO/A44YebOnetPGPbp/PPPl1KQ2BASG0KULbFRWPGsDV0P2cIMzLjHSBoidmdzvsm+Lg6xUZjHwsRGfB44rkCJDYkNIbEhxEYRG8SmJk+e7LOMSWzZb7/9oqQXxMb+++/v5wyTbEOyDlOHgCSbLbbYwru3cEORefv111/715j+RFYv06Fwnx122GGR64t1Etfq3r2723fffX3SDrEyg7nODPLMTU51PST0MMjyl+ItuL9wpz377LN+2bvvvtvH/pJB1Te8GZ988sl6r5100kl+/+Ji46CDDvJZ10yHMtdbXp9NghQFcHiefUDY4Eq0dXIMt912W9e3b18f/yTT22Bfyb5+5JFH0lqPxIbEhpDYECKjxAaJMkcffbT/n8Fp880399XYbEBv1KhRlHF88sknew8AHHfccW7mzJnRekjAsSk+xNgYlBmEES48tkQhpgshTqhjD8Tm7PMAT8rOO++c9noQDQzEZEQDhVUQJyZ+4lOk4jCAE7tLBok+HE/+MqBXqlTJ3Xbbbf41Qiw8JqM5r88mxsh221QxRMkOO+zg/2c6FcVkLAHq4osv9t+HQYwTYcP+p7MeiQ2JDSGxIUTGiA0blMwjARRvocSriQ3MIKmG5fFqMDDiDWFgjU//sWXiVdVIuKHMK+DNiIsUvA4k+hgM2pSZTXc9eEeoNkeiUXx/8oMCLvH1xKG6HduANwexkVhgBq8H4iOvz2aZeClcplhRyQ5PBQlNlPyNfx+VK1eOCuNQYIYM54KsR2JDYkNIbAixUcQGbn/CCdjWW2/tQxYsH88XoBgJU39MbFAhLXHwZa4104muuOIKP+eYu2pc+AgEK5gSL4rC3Tnzkk0kWN17CzOQEcyAzXQpPpvwQbrrAaq8WVEW5nrnNkUpDoP56NGj8/RsUEcfscE64zCX/LLLLsvzs+vXr+9DIfH9YBk8MogEwh5xCEcRSiFplfdaad501iOxIbEhMo7yoeDQCSRK4vWOWkI0YGufld2ErUWeYuPXX3/1cX7s+++/9+VWWd5i/0Ahlj59+kRig7nSBgMbyzOYxaEsLKGPHXfc0f/PMqw/GYiExIprhEQoQUs45/DDD4/Wme564gKGudrkmeQHIoFwSLK50dTON68LYoOwTRxyNP73v//l+dmIIwrMJCOx4p2FRPDeUNPfvod01yOxIbFRxqGS692BrQ7s88AuDgf6VOkXvr8woaps1bImNvDGclNWvXp1n4vXu3dvd9FFF0VlxG0qLM3LREZf7/qG17lO4bWuZdo5G3TnM+8FYoScgVNPPTUSG3garNIa00PNs5DYChixYDkElLUlpwPwmpxxxhlRCCCZSMALwFxoQgWvvvpq9Hw668Frw3NWgpbiLeSbALXwCc3kxpQpU3xI6KmnnvLvp5jMOeec4z025GOY2KDcrT1+5plnfMiDsElen82xxHOCVwgQEZbPkUxs8B1QYIZclrg4SGc9EhsSG2WcJwO7M7CO4UVyRWDzUnhfjcAOzMou1PbfwAYHNqGQtonfRLWyJDbIM2N/qW1B7h03knhkeY4bTImNEnW94zrXO7AuWdnVktMXG8zCYGYDd/AYPwgbpGj9y4Bms07I5bDqbRRG4Q6cWRnc8dOul3ADkHPAAM6dP8bAad6QZGIDlcuPMLE0bTrrYfYK20sZXZbFK0CCJeQ1GwUIWcybN8/PxmFmCuEJZuDEOxcirKi9wewclmOfLSE2r88maZTtJBcFGzJkiHvxxRdzFRtAsyHyMciNMdJZj8SGxEYZpnNg/4beDWNKYN+FuRN5wfd3UWArA/slsPvD9xaW2KheVsQG4wo3Z9x0xT3h3MiZ4ODG0sQGYX16nlDQC3EST+jnZo6xiWszoXQmEdisRG4k6cfC9Z1aQsymtA6teOVZN9dubuAImfOYa3jcK8xz1CMCCnhRl4hZksx0tHA4+8Ny5NEx1nFzWsaud4NDj1/3MJTSOitLMcEyj8RGsZx8yWKYjQKrGw4qVQKrFA4y5VMY6EThMD2wTxKeaxF+Z+1SFAVLQxtaiNvFemuWleszHmj21cLicRjYs8I28yY2CLHQop4JCuTwITqYeff+++/713fddVf3wgsvuHPPPdcn499zzz1+XYRo8DDj6aVKaPny5d3ZZ58d3ZDyXkI35NbRTI7wdjyZnvLj5cqV82XJWQfLc4NLDiGzFBExeJNtOxEtrNdmJZah693w8MaqZ+gxlNgQEhvFdPIli2EiNuqEYqNyOMBUkNgoVg4J7NWE56qG39mAFN6/X2AXhN/rS4X4vVUKvV5l4hwhb419JRydCCFpXiNHzwZxC88D0/p5jpmOTEbg/wEDBvgmb+Y9B2bk8RpeaINaRVaewcQG3gvjwAMP9M+99tprPr8Ob4gVa8SjzGuUSAdC5jxGxNh2xmdOlrHr3ajQu9E79B62kdgQKldePCdfshhm41BsVJVXY6OKjdcSnquWhtgoHy6fFYqDwqJy+NsoE+cIwoB9pYtqIngweA1BYoM4hSUNQto8hyiBCy64wOcOht+hFx6URMDTwWNCzuTXYYRuCIHExQazHA1C4zxH/iEzL/mf7q0wadIk/5hkVtaFtyXRAxPfzjJ2vRsX2LAwlNIl9OZKbAhRDCdfshgmYqN2KDbk1dg47BLOQInTJvzO2mzE7aochtjKxDnCpAJEAFP2yaswmGVIGIPQBWENG8TjM+/M+0BYA8jpwwipmMeEBFOS8/mfXDpei1tcbMQnHbAe6iVRnoDcDUIwbBOQ78HyNHeLr4sZkWU5kTU8dyYGtnko2LtZSFKjgRBFf/Ili2Ga2KiSIDQkNoqPDuH30ypBgHy1EbepTBb1onQA+0t9IEIjTDZAaPCc1UiyQZxBn5ALIQvyIkjSpzMsuRl4GvAuEPq44447fF6GFTtkhh5eCHIoECfUGzr00ENzFRvALBnETsOGDX1+hsFsRJZnIgKt5vHKIIKodSSxoRbzQmysky9ZDNPERuVQaMirsXF4LLB7QuHBndi7gZ0Qe/2i8KKZ22OJjUKCuk2EPQhJYIiBeDt3m+VBnSZyJliGGY6EOIByApRmYKYf9ZAIp8yaNSuqWo3XhPpOJHLiRSE3zSow5yY2rGAklli7iO2l+zfbwaxDqlbHRZHEhsSGEMV98iWLYTYJxUYleTQ2Kk1CsfFrVnZhr/mhp8n4I7Bd83gssSGExIYQGXHyJYthqs6GkNgQEhtCiCI9+dqHNR0kNoTEhpDYEEIU+snXq379+m8E9nrwf32Nr0JiQ5Si693kwMYENiiwHlnZ0/31YxaimMXGoEBkvEUiGhb8/2pYU0GI+NRXiQ1RUq9322Vl9wkaFibFd5DYEKJ4xcaoQFy8E894l+Aosxyald0ErleS15gO3UDXZ1GCxQZ5akz5p3pyR4kNIYpPbGwZiIqViVPrJDjKLHzXc8Lfx7UJ331lExsyWQm0KTHPRh+JDSGKT2xsX69evfeTCQ0JjjIPNVfuDuyHUHzUiYsNIUrg9Q6xMT70bEhsCFFcJ18gND7MS2hIcIis7KnRhFVWBbZnmDisE0iU5DCKPBtCFAc//vijL6WcitCQ4BAhu4WCY6muz6KEiw3L2eiUpdiSTFa01qtXL/fDDz+kfLKyLO/RsZNJbIgSHkYxz4ZmowhRHCdfnz591qYiOFimb9++P+QyQ0GUnYTR68NcDp1AoqR6NiZIbAhR/CffwYHg+CUvwSGhUeanwf4QmwqrBFFRkq93UxNyNjpJbAhRPCcfU1/3DgTHz8kEh4RGmU4KXRXa5uFzVkFUCaKipF7vLIwyNLymtZfYEKJ4Tr4ts7KLek0PRMVPccEhoVHmvRmHJjyvcuWipF/vKFc+KrCBWdnlytUbRYhiFBt28k01wSGhIZIgsSFKgyeXmys1YhNiIyj90VnZjYl6Ij4CkfFjKDT6aHwVEhtCYkMIsaEn31ZZ/98FEbFBF8R+gXXNUot5IbEhJDaEEIXk2bAwip18TQKrJbEhJDaExIYQoqhOPokNIbEhJDZSZc2aNa5GjRpu5MiR+S577LHHur322ivpaw899JDbdNNNo8d//vmnO+2001yXLl1clSpVXO3atd24cePck08+GS1z7bXXuqFDh5aoL+Orr75yHTp0cG+99dYGr+u2225zgwcP9se/WrVqFI9yV1xxRfT6qlWr/Jf/119/Zfxx+eSTT9wmm2ziPvzwQ4kNIbFRSGLj/PPPdwMHDlzv+SuvvNJ169at0H/v8et4qtdnSvSzrxUqVFjP9tlnnyI7N7/++mt355135njuiSeecD179nR33HGHGzBggPvjjz+kIIpTbDz99NN+kMztxzxjxgzXpEkT99577xWa2Nhqq61c165d/WczWJK5f9ZZZ/lB9d577y0WsfHPP/8U+nrGjx/vLrroog1e5/z582nw5a6//nr366+/+pPirrvuck2bNnVHHXVUsYiNf//911threeWW25xm222mcSGkNgogNhIdp0uSWLj999/L9Zz86abbnLTp0+PHtPLiOvn66+/7h/vu+++7uijj5aCKE6xMXXqVPfoo48mfQ3PwzPPPOOFhA1yxosvvuhVIneskydPdrNmzYrExrfffuu22GIL17p1a38y4MWwH+nixYu9N4O73UROOumk9X7MBx10kGvRooVr1aqVu+qqq6IB/uCDD/af3b59e9evXz/37LPP+tfWrVvnt5Xn27Rp44WNnaSsk+3adtttmZboPQcLFiyIPv/vv//2wuqRRx5Jaz3w1FNP+f3FawO//fabO/DAA13Hjh1d586d/fIfffSRfw1xxffzxhtvrHcMeK169eres5EIyrx8+fJeaJjY4MKCN6VRo0b+89gH4Fh16tTJbz9/WS7uNeK75Vhz7J577rlIwPDZCL8GDRr4YzxlypT1fi//+c9/0lrP559/7gUHAvPuu++W2BASG2mKjWTX6VTFxoMPPuh78rRt29ZfM6+55proNZ67+OKL/fWpd+/ebsiQIe6LL77I9zoeFxt5XSvzExuMB1y77LoF3LCxHcA1ZdCgQf4ah1199dX5bjsecq47eMyHDRvmlz3llFPczjvvHL33s88+869/+eWXUhEbW2wsWbLE/0Dh448/9qqQH5XBwMEdODCINmzYMBIb+++/v9tmm228KODOfPjw4dGPlB/l2LFjk27LBx984HeIv/yYK1WqFA26/IB4zMDFD5QftrnBFi1a5A477DD//+zZs/2P8+eff/aPGTB32GEH///NN9/swxIodOCHaj9G4DggbNjudNYD++23nzv00EOjxyeccIIbMWKEFx3m+bHPQpD873//cz/99NN6x4B9QYzl5nlp2bKlFxImNthvBnJOmmbNmvnjxTHHTWlhi08//dRtueWW/oR/+OGHXd26dSNPFa7G5s2b+21iHeXKlXOnnnqqX+ebb77pvU2//PKLX5ZjweN33303rfUYJ598sttpp50kNoTERjGJDc75mjVrugceeCC6rlesWNELCeBmCHFgHtJJkyb5a1d+1/G42MjrWpmf2LAbvMceeyx6jvUuXLjQfffdd65WrVru9ttv989zPeOaw3Upv20//vjjc3g2uOFLvNEhPeCyyy6TiihKsUHMii8YY2DDZc//qF5jl112yZEjsPXWW7tbb73V/496ZP3ffPNN9Pquu+4aiQ0UaPzOnMHRfqS77767mzlzZtLtYmBmvcuXL/c/ZpRrHNbBenGF8SPkpCI2l7jMddddFz3mB8rJhVDClY9KN/gxV65cOVLybP8xxxyT9noAL098nznZ7XjFj1l+Tbv4zMR1xyEUgcfAxAZ/DbafC4SdwOzLypUrc7yfZfgO4uA1evzxx/3dCOs0DwwgOBFXcOONN0ahkHTXA1xQ8to3iQ0hsZH6dRqxwQ2YLWPGHXvcs0HuXVz0c8PANRbwehJyMBAOdn3O6zoeFxt5XStNbLD9iWbbwE2a5W9wY8T2cZ3kepM4BhDWP/HEE/Pd9rjYYP8Txyu7IcxtLBLF5NlgEK5atar/0dapU8cbd/KjRo3yr69YsWK9fIHDDz88Ehv169fPsU7yMOxHygA4evToPD0bDKD8mBNVOwOdKVEGte22285vG8sR07TP5oTDnWfGMvyIEQkW9jC44yeUwh057zXVnO568PwQSjFw47GNBl4Y9g2vQF7g8kQAxd2KiZ4Njo2JjfgdA8fWPAd4HIhLsny7du3c5Zdf7p+3YxbfL7YVQWEiwe5Q4JxzzolCKYTL8AYVZD3AseUiI7EhJDYKx7PBdYjzLW7nnntuDrFx4YUX+pAx10+ulXg9LeTJgH3//fdHy8YH6byu43Gxkde1MpWcDULyFkrBW7799ttH2831Ir5ePueAAw7Id9vj/3PNZZ8Tc9C4lpFnJzai2Dj77LPXU3z8EPhBMIgR72L9iBKDeJiJDX6QhAkMXGL2I2UARo0jLBKZM2eO/wHZj5lBMg6KPr5eixfyA23cuHHkYUjMQjYQCeQWxGFwxD2Im5EZH3FPRTrrSRQb3bt398vFY4Qcs2Shkzi8jrAjOTQRQkncMbAuExvx3Jc999zT520ky/XgboFZMocccoh3cybDRIKFTYCwFdtjf1evXu2fT3c9EhtCFH8YhWsY10ZC4XYd50YyFbGR13U8LjbyulammiDKdjA2MEvEJgmQFN+jR4883yOxUYLFBl8I+RAW44uDq4sMXpbhR2c5G3yZuPhMbDDoWayPu1viefHZKNwpE29jcMY7QqYwd9AMZuRj2I+ZH4g9JlGVO37CJrjzuGs3zwrueYQQkCeA58RyJdgPy+dIJhKIRRIHRE1z8hrpricxjEKy6+abbx6dZEcccYQbM2ZMlLNB/DDxzt+44IILvFcJ16TNRrnnnnu8oGG9YGLDXIoIP3I2OEEJMxGP/P7776PX+H4QG0uXLvXrsYsPoQ5+AwiD3EQCxwExyXdqFGQ9CqMIiY3iFRtcK0ni5lrMdfv000/3Nx6WI5HXgJ3XdTwuNvK6VqYqNubOneu9slzHLcmecQFvqeXGrV271u29997u5ZdfznfbSQjFE6swSgaJjUT4QTMw2ReeOFjwY8CbwOBPkihJgRMnTvR3ufw4LT+BgRWXF94C3HrxfBDWPW/ePJ+0w50uLrcJEya4ZcuW5ThhqL1BDgLL4eWwu33u/vlRESJgvXyGnYgMzEceeaQXTBgZyrjpchMJFgfEYxD/Maa7HhJE7QSz/BOOCduOsOKkxSMBec1GMbij4ORmVgcXBz4vHhd9//33/bEjPEJeBceCz7eLCicbx4yYJ7FXBIxBRjffHfvFRcninrmJBJbn+cS7l3TXwzYpQVRIbBRfnQ1EAgn5XAv69+/vky0ZsLluc/OR14Cd13U8LjbyulbmVWfDvNiW50FSeaK31GajIHJYN3kZFmLOa9tfeOEFP2mB6yLLcx3mhi0OaQFKEN2IYkMUDLw0xBSTiTSR7TEjtITnRWJDSGzo+lyccKMzbdq06DFCSlNfJTZKLNxBENcUyT01xGMLo1CYxIaQ2BDpgDcZD41NACC3DW+MkNgokaCSCZm8/fbbOhgxyErHDZosKVhiQ0hsiOKANACKfxEOVrlyiQ0hJDaExIYQEhtCCIkNIbEhdL2T2BBCYkNIbAiRyWKDKVVMQ4qXliW5hmzexPLgmUxpatNuMI2LKcFMPdtQXnrpJV+GngqA1DAhr4IeLsxnN5hhk1ujvkyCWUB815R4ltgQEhtCZJjYSLV1McvQ9CZe2CmTKU1t2sEas1GfhAI/Gwo1Tajhwdx0mjKxfsQHiVMM2jaFt6jFRm4N5wqyHr5P6sAk/p4lNoTEhhAbWWykU5mOgjB0RTXya/973nnn+fa//L/bbrv5vh8UAKMwDBU1DToRMshRpIViNFaA6rjjjitQi/NMatNOOfSCtlBmoD/zzDP9MaepG8XMEFDx2S6U3GU72D6K9sT7sVDsi89KBoKCgmmJUHWUiqo33HBDjm1gXewHxdes+Nmzzz7rP5PtpmgQDZVMuKW6XxxHyidT9dSg2BmeKPaX+fD0YWEdvI/CZXYsE48PsE/x7rsSG0JiQ4gSJDaofkk1OcpWQyrtf+kcawMYbvpZs2b5xwxWVOyk3wavUUGU1ur2OQzSTFMqaIvzTGrTvqEtlO0zgQGVQd9gnRwr649CWV8K1ViZcr7XZNNNOY5sI1Vgk0EHX8wG9GHDhvn3UDnWqrqaYDERwTYiKKkYmO5+USreWkMD3hb7nSFYDjroIP9dEt7h8SWXXJJ0PSZc8V5JbAiJDSE2sthIpXUxA2284yvGoGwDfyrtf22wsQH+vvvuix5TSpaSshR7opRsHESJ3Z0WpMV5prVp35AWytdcc030Gs3P4t4IvDCUSY+DB4C+K3lBP5OsJC3gDfYZj5SJjXh+CNuMJ8VEAoP9888/n8Nzk+5+sb3x0sV4kvCCWfM6678CiBsa5yVbDyD48Fzltm8SG0JiQ4gM9WzgSSA0EO/lkUr7X2ugY4MWXUsNlsXVjpvfBg+D+vd2Z1uQFueZ1qZ9Q1ooxwUax4Syu/HvzgZwgzv//KqY4iFgQCZfJzfPBl4K+97i3yPHlm0EGiXRGI7OjAhWxCjej3T3i/fwfkIp5I3gmeBYrVixwh/L+HoImdD0Ltl64kKWEI/EhpDYEKKEhVEOP/zwHKIglfa/qYgNvCzxu1rzHPB5UJAW55nWpt2Ox4a2UE4UG4QXEENxyCGx9ecF3+Uee+yx3vN4XAh50GzOvrf4cSSXw5o8xSFcQ1O2Sy+9NO39Ajw/CCe6Ctt3b90aLSyUynokNoTEhhAlWGxwF8vduQ08qbT/TUVsMKAwuNmyuMy5y43fdafb4hwyrU17YbRQTgyjIIB4v3WTRWQwjZX12uu5hRMIfeCtYqqrzUZ55ZVXvBjieMeTMOn5wvHjORJ82Q68ESSHWmIniaF0USSfIt39Ar5v1odYIu/DIE+IRGFgG88444yo+22y9SiMIiQ2hMhAsZGM3GajEEZo3Lixv/uF/Nr/piI2gI6p5FHYbJR4LQxIt8W5kUlt2gujhTIJotT2j0OLZD6fZVlPPOkzr9kogLigzgYiirATn0+iZjysRNiCWUV8P+TBTJo0KfIu8X3w2RwfjFwb6zeQzn4Bx5vfSKJHhNkohNHIJ8IIQSH8clsPvyUliAqJDSFKgNgQmYlNfSWHRiSHEBieF4kNIbEhhMSGKCCnnXZalDwrcsJMH8JUTD+W2BASG0JIbIgCQiiCHAoruiWyIWeE+iWEzjLg5JPYEBIbQmJDCCGxISQ2hJDYEEJiQ5Q+EBt1dX0WJfh6t3lgAwLrFlg7iQ0hJDaExIYQhXm9GxfYsMD6BtY5sDYbPPWV98enrgL1OJIVdEoGdRysrgLVOomnA1McKYVN4aXEqayJUDOBhEjKYzNFlboZ9OaIT6EtiW3imR7LVFp6mzCd0/qvCIkNUeqpFFhtiQ1RQq93I0KvRo/A2gfWMmWxkVuLeepLYBTEKojYoIiTdUn97bffouJYFJBi26xzaF7Q0p5aFmwjYoL6HvQ0oWaGVcksKW3i4+sZP358VP+CSp3W70VIbIhSD7+JmuFvRyYrSfZeeJ3rFVinwNoG1jRlsZFbBVEajVHwiV4huYmN3FrDmyCguBKt5M2zQb8QCjyxbXTspMdIYgt5OsVS1XLx4sXemxEvJW5QAZRiUXGxUZRt4inEVZBW94nroeQ6RacojmVVRBEgCKr8mqcJiQ1RasRG9TCUwu+kdXiH2DWwPoENCu8eR8rStuPDc/J4HYtCt2GhR6NXGD7hOtcisEYbLDZoxkXdAopI0RArUWzk1RoeEBc2sMfDKPEKmxSnQlCY14Pqk4RKKAl+1FFH+SmeyaAPB+vgb3G0iS9oq/vE9QBdWq2jrXHyySdHzd+ExIYo1VQIrGoYSmkQWLOY4OgSWM/A+oe/J1l6tpIqxPzVsShUGxDmaPQIPRqbhOETrnP18xQbqbSYnz59uv+fUtWUnaaEd1xs5NcaPhWxAUOGDPHNu4AOnngGAM/KzJkzk24/YRnWsXz58mJrE1+QVvfJ1kPHUoRQHAQa3g4hsSFKPeUDqxJYjdC70TAUHK3CzP6OoZejuywtO5ibX+Avj3VMCs26hUK4fRg6aRETGrU32LNhYoMBu2/fvr61e1xs5NcaPlWxwTKDBw/2/9PWnPbkgECgIVheng0ERnG1iS9Iq/tk6yG0RCglDp4TRJ+Q2BBlQmyQJFotzN2oE3o4GgfWPBQdbcPfkSx1e4txy8YvHuuYFJohgtuE3oymYejEhEaNQhMb8OKLL3rvBwOoiY38WsOnKjasHTwCAi+ENdnCM1CpUiX/fCJz5syJPru42sQXpNV9svVIbEhsiDJNufB3UTkMp9QIfyt1wwt4w1B4NJGlbDPNq2GE3o2ZOjaFZo1DUVwvFBk1w9yjKoUqNmxQJanTxEZ+reFpNz5//vx8xQbMmDHDtxInITUOngQ+k8GZ2Sa0LsfDwGBPAmlcbBRHm/h0W90nW4/CKBIbQt6NMHejUkx0VA0v3iY+ZKnb6+bViI9hPK9jU2hWM/xtVg9/q1XC32/FlMVGMpKJDUIBhCLis1Hyag1PHkbNmjV9S/D8xAYeB57DWxKHJMt58+b53BDu/FGrEyZMcMuWLYuWKc428em2uk+2HhJE2b44bKMSRCU2RJnzcJQLhUf5mACpEP5uZKnZlESvRoJ3Y4qOUaGZ/T7jv9lyGyQ2ihuSN5myum7dulI/QCHQyOuIT33t3r2798QIiQ0hRFq8mujVSPBuvKpDVPSUiAs2010Jn8ydO7fMDFJM6V24cKH/n1k91CopjMJhQmJDiDLENrl5NRK8G9voUJVxsUG+B2XLp02b5kVHWYH6G+SiED6iEFiyJFghsSGEKJhXQ94NiQ0hJDaEEEXu1ZB3Q2JDCIkNIUSRejXk3ZDYEEJiQwhR5F4NeTckNoSQ2BBCFKlXQ94NiQ0hJDaEEAUa2wpoT+rQSWwIIbEhhCgMISIkNoQodWJji8A2z8puw0x3xHYSG0IIiQ0hRGGKjXGBDQ2sb2Cds7K7I9IVkV4CFXQZEkKUBXeSTCYrOrszsBGhV4MQSvvAWmRld0esLrEhhCgLNAgvfMSQuwbWJ7DBWdnx5QlZ2bFmWeaY0zEoUYZHY3hWdq5Gz8A6BdY2sKZZ2e3Cq2VlNyoSQhTvTbYoZrjgETtuHd5xmeAYFN6NjZRllDkdgxJlw0KPBkKjcyjqEfcNA6udld2GWWJDCImNUk/t0LvRLCY4uoQXx/7hHZksc8zpGJQYQ2SQo9E99GggNFoG1jiwelnZ+RqVJTaEkNgoC9QIvRsNQ8HRKis7U75j6OXoLpPJCmTdQm8GAr5t6NFAaNQPRT75GpUCK6fLkBCitFMtvMOqE3o4uBg2D0VH2/BuTCaTpW+I9jahyGgaCvp6MaFRJSt72qvEhhCi1IMbt2ro4agVejnqhxdGhEcTmUxWYGsUivi6ocioGRMaeDUUQhFClAkqhBc9Ex1Vw4uhiQ9ZZpnTMShRZuKiWnhuVQ7Pt4qh0JBXQ4jiRzkbG4FyoZWPWYXQKsoyzpyOQYkzO5/KxwSGRIYQEhtC6CQRQghdR4UQQgghhBBCCCGEEEIIIYQQIkKxRiGE0HVUCJ0kQgih66gQOkmEEELXUSGEEEIIIYQQQgghhBBCCCGESB3FGoUQQtdRIXSSCCGErqNC6CQRQghdR4UQQgghhBBCCCGEEEIIIYQQInUUaxRCCF1HhdBJIoQQuo4KoZNECCF0HRVCCCGEEEIIIYQQQgghhBBCiNRRrFEIIXQdFUIniRBC6DoqhE4SIYTQdVQIIYQQQgghhBBCCCGEEEIIIVJHsUYhhNB1VAidJEIIoeuoEDpJhBBC11EhhBBCCCGEEEIIIYQQQgghhEgdxRqFEELXUSF0kgghipxysgKb0zEodBMSG0KIEiomyodWIbCKoVUKrLJsg8zpGBSZVYr9VivEfsNCCCEyVGhUDC/gVQOrFliNwGoGVjuwuoHVk8kyxPg91gl/m/xGq4e/2yqhABFCCJFhmNBwMlkJszcCaxCKj9qhQK6qU1oIITJTbHh3vxAliVBwtAisSUx01NQpXfJQzoYQpZ8K4d2gRi9REsXGJoG1CqxZYA2zssMrQmJDCJGBYqOaxIYooWKja2DtA2sdWNPQwyEkNoQQGQb5GjUkNkQJFRt9YoIDD0djndJCCJF5kL1fU2JDlFCxMSgUHF0CaxdYc53SQgiRmWKjtsSGKKFiY2RgAwPrGVjH0LshhBAiw2AmSl2JDVFCxcaEwIYH1i8rO5zSVqd0yUM5G0KUbsqFYqOexIYooWJjUujd2CywblnZoRQhsSGEkNgQokjERves7KmwQmJDCCGxIcTGExvqZCeTqbuhKINi499//3UXXnih69Wrl6tWrZqrW7euGzJkiLvzzjszdqC7/fbb3eLFi1Ne/plnnnGTJk1y9erVc5UqVXKbbLKJO/LII91PP/0ULbPvvvv6AfTVV1+VkthAsaGugjJZwbsbWofDeHdDCRJR4sXGAQcc4AeONm3auEMPPdQdddRRrnXr1v65a665JuMGuT///NM1bNjQi4VUWLRokatQoYKrUqWK22233dxxxx3nBg4c6Pevd+/e7tdff5XYKGSxoa6CMln63Q2tyVDN8Jzh3KkSnksVJTpESRYb77//vitXrpxr0aKF++GHH6LnV69e7UaMGOFOP/10//iff/5xF1xwgRckeAb4e+qpp/rnAU9Bp06d3HXXXeeaNWvmGjRo4E444YQc65s5c6Zr2rSpq1+/vttpp53cN99841/bY489/MB15ZVXeq/KjTfe6NatW+ff36pVK1e1alU3fvx49/nnn7uvvvoqRzMwPhNeeOEFt/nmm7uaNWv6fbnkkkuiz+7QoYNfdsmSJdFzbPd2223nnz///PNziI2FCxe6rl27enHCMmvXrvWvf/HFF27bbbf121+9enU3fPhw9/LLL0frvOmmm1y3bt389nbv3t09/fTT/vnrr7/er/eMM85w7du3d3vvvbcbNGiQP+5ff/119H72he1H/Hz55Zdu2rRp/jjWrl3b7bfffl5kJTtemSg2uEBWDy+a1C+vn5Vdy5wmKhTiaCHLKHM6BhvdmodGGV4q41mzoVpZ/9/hsFLo7ZDgECVObFx99dV+0Dj66KPzXI4BmeUYAB988EG3ww47+MeXXXZZNFAyAO+6667uoYce8o95/ZVXXvGvE8KoWLGiu/TSS723pHz58m7ixIk5Bnm8DKxv5cqVfnt4DrHz3HPPeQHBOhhwr7rqqmhbXnvtNT9g16pVy4uKl156yR1zzDH+dQTIxx9/7P/v06fPevuEGOC1xO3YbLPN3D333OOmT5/uH5900kn+dfaNfXzggQd8WKZfv34+3AQ8x7JTpkxxr7/+uhs7dqwXCr/99pu75ZZb/GsILQQHomfBggX+OY4/vPPOO/4xnhdgGypXruzXS8iI43X22WcnPV6ZKDbUElcmS9O4q8j6/0p5LUPh0TAcIGqFno7KEhyiJIqN+fPn+983f/OiS5cufvCzkMP333/v3zdgwIBIbPB4zZo1/vE555zjH99www3u22+/9f+PHj06Wt/jjz/u7r333hyDJ4OygUeD/BHznBD6ME8A4oPlLYxigomBHBjgGZwJDyE+eG3LLbdcb59WrVqVYx9sO+66664c+9i/f3//GG8M68XjgmD4/fffo3XNmDHDL8u2AfkkPEYomNhg/Qb7QWgHTwmceeaZfplHH33Uffjhh/7/CRMmRMsPHjzYe1tyO14ZJzaEEAU7qerXr/978HdEVvY8chMdDcIQS3UJDlESxQZhDz77iCOOWO+1v/76K/ofzwHhkTiIAXsOsVGnTp3oNVz85uon1GCeiGTY4IkwMPAgIC5q1KjhDaHDMs8///x6YoM7fh4T9rDlzWPx6aef+v979uy53uc+9dRT/rXJkyfnuh18LiEjEyfjxo3zHhqWI+Rx1llnRZ4bnmO7+XyODY8RESY2EgUd62Idf/zxhw+r4L1BXOGRYXk+x/YHYUJ4JrftlNgQopSIDZLG6tWr90fw/+jAOmRlV8prHno5JDhEiRQbDMYMZE2aNHHfffdd9Dx39W3btnW77LKLf8xdNQOv5S+Yt4JEy/zEBvkH/D9y5Mjo9bvvvttdfPHF7u+//06amNm5c2e/PnJK4obXIlFs3Hrrrf4xHof4suR4mFeG1x9++OEcORvbbLNNlKMRH8TN48LxiHs+7H0cg8ceeyxKMiWXg5wK/r///vtzbAPH0cSG5YYYhJN4/tprr/XCisRc83rwPGIkcf8zKZFVYkOIIjipICY4xmdlNx7aJMztkOAQJVJswOzZs/1vnNDFIYcc4vMlbDbK5Zdf7pchOZTHhAsYaKdOnRoNlPmJDSCHAVFDjsHNN9/s7/wtrJJs8Jw7d65/jiRUPBB4H8aMGeNDF+RpWG4F4RhCN+RHIIh4THIoCZqEcOCRRx7xSa2IJZuNwntZB+EJklHj24GIIAxiORtsC5Cf0aNHD5+v8eKLL/rQDOsksda8JNtvv71bunSpP47kibz55pu5io0ff/zReysaN27sXyfXw+DY4NG47bbbfN5G3759/UwhiQ0hyoDYSBAcW2Rll+fdNAyrSHCIEik2gLwHchMQAYgG3PrxOhvc0Z977rlekODeb9euXeQRSEVsMPOEnAemrDKbY8cdd/QzS3IbPBEAiAI+j0GXgX7ZsmX+Nbwh5DMgICw8Quhh2LBh0WwUwkI2ewMIvxDqYPYG79t00039+i0HBeKzPJhdQ1gGzw7eFEBg8BlsD+ESEkQRAgazaPCicAzxzFjyZ25iA2xGDCImDt4gjhEiiuOFuMODIrEhRBkRGwmCY1J4grWX4BAlWWwIIbEhRIaJjQTBMVmCQ0hsCIkNiQ0hCl1spCA46khwCIkNIbEhhNggsZGL4Ng0IWmUOhwU/iqvsVVIbAiJDSFE2mIjQXBw4nXNyq7FwbRYqvRSsZdKoxXl3RASG0JiQwiR10mVqvUNrHNgbbKyWwHUDcMplSQ2hMSGkNgQQhTGyUdZ855h/gbhlAahd6OyQilCYkOUebHBHGnmHzO3mHnCzDO2Uqxi42H1++loGIc53Tx//PHHF/pnPvnkk37dxx57rH+czrxuSvvmdtdPs6GihtLFNHIymN/P3Ho6WFIxkCI69B4owpOPkub9srKLfrUNvRt1wlCKxIaQ2BClSWyQqzYmvMnqEeas5S826NYHFHChShrFS6ikJiQ20hUbFLBJNGvSVFTQYTIrLBlsxLf9gw8+8I2UqPJXhCff6ATvRvNwMKkmsSGSILEhSrLY2C6wCYENC6x3VnYrh9TFhkFFOerXA1XQqJiWDEQJF3NKydJsh1K3VJiz1rxUiuPzf/nll/XeS8lXq6xGFTpKtzJgtWzZ0g8UVgWOtsa9evXy9frxulBX3qCyGpXYaDHMew877DBfZY6KdayTO1uqsPE/VeISsQpv+++/f/Qc28zAZPtMRTtq17dv395/xlZbbeWXoTQt6+V51tGxY0f/mOZDtDemzC7PUVGO+vnWWwDmzZvnt43lGzVq5O+8Cyo2OLYzZ870FfroVMq6rELfnnvuGQ3C3bp181X2OF72ffz000++NTJeLbaT7cpLbFCtj+2xan2UB04UG7lBZULr3miw/6yLan5UzuM3ROU89oNjZr+BvPbDvkMztpkywlT6w6thbL311r4ColXjK4KTj1LmQwPrE1inwFqFoZTq4RRYIeJUCX8fGr1ESRUbEwMbHuardUzbs/HEE0/4gctczqmIDerD77XXXv793MUyWFAmNh2xYXel1I1nwEFkIGIYWKw0LO19GTBoBmQD2EEHHRQ1yeFxfABk4LGmPclg3ygXi8CxlsaXXnqpFxC2z/QPYL0///yzf3zwwQe7HXbYIYc4SdxHStvSZwDYBwZomgUZe++9d/SYlsx5iQ0GdWrjm1GuNy42qMXPY3oPWGMia6JkYoHt4TtGWPD4vPPO868jznjMevneEXW5iQ1EAh0gEXZ0HTzmmGP8awiQuNhgu+NmwmfBggX+dSvlS2iFx/QsAHoW0G+A75r2zAg+QiP57cfq1at9S+mssLviRx995Js98djeD1ZG2Xo6FMHJNzEMpfQPZ6YQSmkU5m1IbIhkno0GaSYhy2SZYlNino0+KYsNRAN/iWszmJ9++unR4JuK2IhDsxyep1NdQcQGgwdiw9aLePn333+j95FXsnz5cvfZZ5/5deNFMBjIhg8fnpbYQAjQZQ/BBDT94T22z9TSpx2zgQjjGFkTn8R9tI6B8Tv4//73v34gN6j3z3OpiI3czMTGe++9548VHh1AEOCliA/SDL5AjX8e4ykAhAP5OrQ6jntNkokNji3/n3HGGf41+gYgCBjo88rZGDp0qH+d40FDpm233dY/pgUzrz/66KP+mPI/QsqgURINllLZD7YpHkbBs2brTgy1IM6KSGxYwtSArOzeKe3CvI1a4fRXIZKKDSFKoGdj29CbOzwtsREPozCIc+eIp8IGZMQDHfEIrxBGoKNdMrHBnaeJlfhATKteDCFwzz33JBUbhF9oroMn48ADD3R//fWXf+3CCy/0Aw93vmwDAxathlesWOHXzSBnhhfAGvSkIzauuOIK77FA6BAKuuuuuyKxQRiGNszxz+GY0aI5mdh44403/GMTa0CL46ZNm/r/EQXsoyVN5ic28guj0DSJ0AJCkXAIryGQkoVBEIA8pqsh4IEifJVKzgZeAv7nM/jeMR5PnDgxh9hAEMTt6aefjtaPqGPfETd4i/i+OE54R3gvvx1bN98z+5TKfiSKDX4/ibkmfF9xr08Rio14drbEhshLbNSX2BAlVGxMCcWGeTYKlrOBK9s6+SV6NshfMO9BMs8GIsDCIIkD8aJFi7yrnLvi3DwbvIaoodMgAymDoXkvGKgZgBAbeDxY9/fff5/rvqUqNhAZiB08GIRlGCRtnxEv8S6IiSTuI+visYUPTCDQdhieffZZf3zMW7MhYoNBm+NBPguzLxi4yVVIVWywz3g2CPUA+TC5iQ0L0RD+YT1mn3/+eUo5G/H1E8ogf4Pfknk9eB4xEl83Vthig7wQiQ0hsSFEoYmN3gXybDB4k7VvgiJRbJxyyik+DBAXG4QE5syZE+UokPPAwJ04EBOqYHAjITA3scGAiYfktNNOc1dddZVv3ctzDM54TAijPPbYY1HIg3bB9j4GnXjII1WxAePHj/f7zDbGxcapp57qRo8eHbUbRoiR65BXzgaJiTZgs6/sD+uxnA/LU9hQsUEeCYN2s2bNfI4M+8r3Wa9ePR9eyW+QtkGZBFnEYffu3XMVG4g7RBKhjccff9znxrD8DTfckENssD+JRmjN8nEQRwhIln399dej/eIY83u67bbb/DHu27evzyVJRWxccMEFUViFdfJbzC2MYuuU2BASG0IUs2fD6mxgJIcym8PuzBmQGeDJOcBdTyiDBMG42GBZ4u3MFuGumgRIZhLYQEwSJsZAddNNNyUNo5CkyV/WQQImMyUYTMeOHevvwPF2kDjIups3b+7eeustP7OAkA/vwRBJ5EwURGwgbBi0ES1xsYH3gHUgoDCEFjkDeYmNTz75xIeb2B/s8MMP9yIMgcAx5nM4lhjhFfIsbAZPumEUwhuEehAYJ598svca8H1x3PIbpBEQeBPwNvHdXH755f71I444IukgT7gD4WSzUVjOZozkVWeD5FWDWST2m4jDbJQdd9zRCxr2Z+rUqdHMkfz2A88XM3/4HSOg8koQjYtRiQ0hsSFEga532yUkiOYvNkTxgUcjPvAaF110UZQjIzYcpr4iuBKnvpIHUoRTXyU2hBJERVkRG1OzsmfgmdjoJLEhsVEmSSzqhdAo4qJeEhsiVcrJsyFKSRiF2kK9srILGerHLLFR9tgI5colNkS6YkMVREVJFRuUKx8V2MCs7HLlasQmRDGdfBIbQmJDlOXrnX7MQkhsCIkNISQ2hJDYEBIbQkhsCCEkNoTEhtD1TmKj2Hj33Xd9l1TqfNCLJK9KpkJiQ+OrkNgQEhsiLahkShGs//znP77QGCXa483ihE4+iQ0hsSEkNkSBefnll90WW2wRdVkVQmJDbEyxQSVmKjsnQtVcqhQXNrS3sP5LVCy2zs55Qb0b9pV6N4m2zz77FNm5Sd+lxN5WTzzxhO95dccdd/gGodb1WhSh2KDz5oIFC6LH3J1ThjqxMZuVzqYTK+W8+YIomw301KCUOc3AKBlOsy2gcyq9M6x7K2W66YgKlJmmoZdBXxJKkFPamxLoVsacfiSUn6YUNaEKBvmPPvrIv0apcWonWElwflSUrZ48eXK0/H777efWrl273n4nKzHOyWP7TTls+q5QJp0y6vQzMc/F7NmzfWnzXXfd1e835cSXLl0aree8887z3VRtu+hdYiXd45958803++NPmfdRo0b58usGzdooIc77rcuskdvxpsQ8y1NbgnLf/L/HHntEFwR6zLCPlGGnkV1+2wv0KcGDw4nJZ/LdcAETEhti44gNuijHmzyWNLFhTR+LC9pjWFsDoD8TLSKsLxPF/44++mhdxIpabNALg54j8UGOvh2Jd+1xscF7Jk2a5J/nh0OfDBpnwZIlS3yb8G+//dY/pmIjg1lcbNDoDBGybt26aP30HLHmavGeKQgSijJZEzQahNGbw8RGvEEc8Jr9cNg2hEBc1KQqNugrYuuh10qjRo28eAJ6dtDu3sQBoosBnj4ugDiKN2pjvxPFxsqVK/17EEhw9dVXR11h7QSx/aQPi4mN/I63nTzxfjC0t+ezaMwGqHyEnfU0yW17EVf0bEH9GxxPiQ2JDbHxxAbXn3iDwXTERm43KsBzF198sb+h6927t+8BZaX9ub7wfOvWrf3n0CQzmdjgmk4nZ67n3CTRH8qEUX5iY/Hixf46Gx97KHZoTT+5QeLmrEOHDt64Zua37U8++aTvtcTNlF1PaSS68847R+/97LPP/Ov0ZhJFKDZQefSQePvtt/1jGmsla1xmYoPluNvnCzJo5hXPV2B9y5cv9/9TxZEf9ZtvvukHMVQ5d9jxRmb8+OI9K+JigxOF1uYGy7Ad9L5IFBuIAl6zARzoRsvJla7YoFNr/KTgR3zWWWdFXhg8JnEYvE0ATJw40f/w8xIb7B/7abA/vMbxAnJBZs2atZ7YyO94JxMbVCbdfffdc2xvq/9r7/x1o7iiOLwxfwLBIQ7YhgSISYSSEDBRrCAFJUospBRp6EGyC8uVCyMeAIQoEUiIipouogHxDDS8ADXUdHkAMt/4ns31ZDyzGGx2vN9POpJh17t313Pv/c6fO+fEibJza9N4EZM/IljChrChugsbbY4K0WDgICLROJThqNEVmrvwEtVmbaQ7dh1sEPUFCMLxIiJMU81BYAPIOHLkSN/pRLzugwcPyrUdx4f6OMSdgHGg2Ffaxk7DyjyyQcSbRo255ufna+/srN4jbERKI9q0Q4gUO24EG4ADXUJz3b9//82FCxdKb58LHnDIw/Sc1gBQCM9zgUKlcVEgNkrCWqEcNqDS2BQRuTXGwUmQKmwQNeExJkTu1eevXYUNLtJIH9AxNGADyuZzEvXhM9FRlfb1iIs62sWHoGkmHeLz5ROmChu8J2mOy5cvr5toPBZpJuAmLv4qbLR931XYoMsqv4+nEcb3ShqnabwRLuVx/n68FxNe2BA21PbCBtFFNmKM+cl6xM+sxwEbrF/xnDA89jyy0eSosAZGR+4Ah8XFxf4aQUo1RBq5Djb4v7yrMlAA0BDxCNiI7uK5xRiuXr3ar9949epVOT4cMRwe9qZcCwsLb65fv9469hw2+Py5UxcCTOL5agthg42Gi4S28WyadQrYgGq5wAnHRUh+enq6rJWITZM6itj8oGdqQPi9SKNQC3Hv3r3+a3N8lA2xDjZItwAVeciLcdB+vgobr1+/Lh/L85lcpHl6YpDIBpERJm58xkirBGwwIaIFex4pAGyoD2Hzzy/musjGnTt3ytcM8Z48BsEzMdnUA/py2Gj7vutgY3V1tfQw6tQ0XoSHAmgQjjSyIWyo4Y1szM3NlWtMbnfv3l0HG02OChv206dP+8/NN2mco/w9nzx5UgsbPA/IyR0b1i7AYZCaDda6SKWwRkbjRMbNupS/Lu+zsrLSOvb8Z5xUPnP15CCRXSLWaothgy+ePx4QEPUVG8EGEQnSGnjn5PwhXNIiRBN4HY6EQqMADBcMhYWRWwvYAGog8wjf8ZyIClRh48aNG+UGFxcomzzj3Khmg/oO6joiFUKerhqFaIMNOoTyWOTwiHJMTk72w3LPnj0r0ybxOF4HE4SN+dGjR/9L29TBBsVJQMKLFy/K59y8ebMMPwZQ5BSfw0bT970RbFC8SnQnAIUCWxYsxtE0XrS0tNRP5wgbwobqbhqlzVFp2rBZG1krQqQ26mCDtbx68iM0aIEo4yCazSEEoAZRLzc7O9v4O8JGB2AjNnXCXXm9w0awwR8KMr59+3a5weKh4/2SciCntry8XG7GvCaRiUhr5KdRSCFQS3Dx4sXydSkoYlJgePVsjlw8FIbilZNnA3DIG0a9SB1svHz5skxzRGrk2rVrtRd3W80GBZNEZIj0ABlMKHKEEaqjcIlTGrwHngKFtQ8fPiw/d/UkTx1sICAsPhffAydgHj9+XHoHEf7EGNfY2FiZWmn6vqNgtQob8V6MN75nPkfbePn+eZy6HmFD2FDdho02R6Vpw8bpiJoN1iAcozrYwLFjLYuCfupDovh8UNi4detWebIOBy6K2FmDSP3GWkVElnWP2xC0jZ2CUE4omkYZEtjghMmlS5e2fdBEVMK7r06ovDBxVMTEZaJVBaTF5FbChhpd2KjTILDR5qg0bdgU5hNRJnVBWpr0TNSL5LBBTR2ODk4NxqmQOAzQdJ8N3juv86C+r5r6jdMorIO8NnUZcXKlaezPnz8vI9PcwoDn4+Dh1OXi1gMWiG4DbJAO4ALkSKqwIWwoYUN1CzbU4CLSceXKlf6/ASmPvm4DbJDqgFZJiXwICRvChrChhA21XeJ0C3teHJvlPkN1t3tQWxDZUEoJG0rYGBVRp0I9HsWs3q5c2FBK2FDChlLChlJK2FDChnK9EzaUEjaUsKGUsKGUsKGEDaWEDaWUsKGEDeV6J2wo9UEn31+F/VHY+cLOFPa1sKGEDSVsKKXe5+T7s7BfC5sr7PvCZgqbKmy8sF3ur0rYUMKGUupdJ9/vKarBxDtV2LHCDhf2ibChhA01ErChadqW2t9p0p0r7LvCThZ2tLCJwvYXNub+qoQNtdNhYyLljr9KHtcPhf1U2C/JG5vXNG3T9luKaJxL6ZNvUlRjsrCDhe0TNpSwoUYBNg6mcO4XGXCcTovjz+nJmqa9vZ1PNRpnU0SDCXe8sOm0kYynTUXYUMKG2vGwcSBFNyYTcJzorVXKf5uiHGc1TduUnUnRjFMpdXIsgcahBPnUa+xJm4tSwoba0bCxP3lYn6UIB4vhlwk6TqYnaZr29ga0zyTIOJqA/vMMND7urR17FTaUsKF2PGzsTXljIhyfpijHobQwTqd6Dk3TNmdTCeInEmSMZ6CxxxSKEjbUqMDGrrToBXTsS4thwIemaZu3gIv9aW7tTfNtdwINoxpK2FAjARsfJRvLbFey3ZqmvbPFfBrLAEPIUMKGGinYUEopJWwoJWwopZSwoZSwoZRSSthQwoawoZRSHRCwMSFsqA7DRrXLtVJKKWFDqfcGG3S5plUDd1DmjuQzTmmllBo+cTz6oLChOgob0eV6trd2B+XjTmmllBo+cWR6vGfHZK179k9vrVbjx976LtdKKaWGEDa4GZxdubUuWXS5BjSiyzVRjSmntFJKDZ+4CRx3nLUrt9Ylo0Zjtre+yzWwfMgprZRSwyfuNEv/HLtya13qcn2691+X6wCNwwmalVJKDSFsUCRqV26ta12ugQxqNKZSRAPQOPAvRoTA/ccbmOUAAAAtdEVYdFNvZnR3YXJlAGJ5LmJsb29kZHkuY3J5cHRvLmltYWdlLlBORzI0RW5jb2RlcqgGf+4AAAAASUVORK5CYII=;fontSize=11;fontFamily=Helvetica;" parent="1" vertex="1">
          <mxGeometry x="-0.22999999999999998" y="210" width="298.56" height="240" as="geometry" />
        </mxCell>
        <mxCell id="c_21xc94MHx_ofup2Neq-50" value="&lt;h1 style=&quot;font-size: 11px;&quot;&gt;Наблюдатель&lt;br style=&quot;font-size: 11px;&quot;&gt;&lt;/h1&gt;&lt;p style=&quot;font-size: 11px;&quot;&gt;Определяет зависимость типа один ко многим между объектами таким &lt;br style=&quot;font-size: 11px;&quot;&gt;образом, что при изменении состояния одного объекта все зависящие от &lt;br style=&quot;font-size: 11px;&quot;&gt;него оповещаются об этом событии.&lt;/p&gt;" style="text;html=1;strokeColor=none;fillColor=none;spacing=5;spacingTop=-20;whiteSpace=wrap;overflow=hidden;rounded=0;fontSize=11;fontFamily=Helvetica;" parent="1" vertex="1">
          <mxGeometry x="518.5" y="90" width="305" height="90" as="geometry" />
        </mxCell>
        <mxCell id="c_21xc94MHx_ofup2Neq-51" value="&lt;h1 style=&quot;font-size: 11px;&quot;&gt;Абстратная фабрика&lt;br style=&quot;font-size: 11px;&quot;&gt;&lt;/h1&gt;&lt;p style=&quot;font-size: 11px;&quot;&gt;Предоставляет интерфейс для создания семейств взаимосвязанных или &lt;br style=&quot;font-size: 11px;&quot;&gt;взаимозависимых объектов, не специфицируя их конкретных классов.&lt;br style=&quot;font-size: 11px;&quot;&gt;&lt;/p&gt;" style="text;html=1;strokeColor=none;fillColor=none;spacing=5;spacingTop=-20;whiteSpace=wrap;overflow=hidden;rounded=0;fontSize=11;fontFamily=Helvetica;" parent="1" vertex="1">
          <mxGeometry x="518.5" y="10" width="298" height="80" as="geometry" />
        </mxCell>
        <mxCell id="c_21xc94MHx_ofup2Neq-52" value="&lt;h1 style=&quot;font-size: 11px;&quot;&gt;Шаблонный метод&lt;br&gt;&lt;/h1&gt;&lt;p style=&quot;font-size: 11px;&quot;&gt;Оперделяет структуру алгоритма и позволяет наследникам переопределять некоторые шаги алгоритма.&lt;/p&gt;" style="text;html=1;strokeColor=none;fillColor=none;spacing=5;spacingTop=-20;whiteSpace=wrap;overflow=hidden;rounded=0;fontSize=11;fontFamily=Helvetica;" parent="1" vertex="1">
          <mxGeometry x="518.5" y="180" width="298" height="120" as="geometry" />
        </mxCell>
        <mxCell id="c_21xc94MHx_ofup2Neq-55" value="&lt;h1 style=&quot;font-size: 11px;&quot;&gt;Фабричный метод&lt;br&gt;&lt;/h1&gt;&lt;p style=&quot;font-size: 11px;&quot;&gt;Определяет интерфейс для создания объекта, но оставляет подклассам решение о том, на основании какого класса создавать объект. Фабричный метод позволяет классу делегировать создание подклассов&lt;/p&gt;" style="text;html=1;strokeColor=none;fillColor=none;spacing=5;spacingTop=-20;whiteSpace=wrap;overflow=hidden;rounded=0;fontSize=11;fontFamily=Helvetica;" parent="1" vertex="1">
          <mxGeometry x="518.5" y="350" width="298" height="120" as="geometry" />
        </mxCell>
        <mxCell id="0d9XtuFkpqQPsv87mLYu-2" value="&lt;div&gt;&lt;b&gt;&lt;br&gt;&lt;/b&gt;&lt;/div&gt;&lt;div&gt;&lt;b&gt;Стратегия&lt;/b&gt;&lt;/div&gt;&lt;p&gt;Семейство алгоритмов, инкапсуляции каждого из них и обеспечения их взаимозаменяемости. Когда в одном и том же месте в зависимости от состояния системы используются разные алгоритмы&lt;br&gt;&lt;/p&gt;" style="text;html=1;strokeColor=none;fillColor=none;spacing=5;spacingTop=-20;whiteSpace=wrap;overflow=hidden;rounded=0;fontFamily=Helvetica;" vertex="1" parent="1">
          <mxGeometry x="518.5" y="240" width="298" height="100" as="geometry" />
        </mxCell>
      </root>
    </mxGraphModel>
  </diagram>
</mxfile>
